<svg xmlns="http://www.w3.org/2000/svg" xmlns:xlink="http://www.w3.org/1999/xlink" width="50" zoomAndPan="magnify" viewBox="0 0 375 374.999991" height="50" width="50" preserveAspectRatio="xMidYMid meet" version="1.0"><defs><g/><clipPath id="e483321039"><path d="M 142.378906 241.5 L 161.632812 241.5 L 161.632812 257.25 L 142.378906 257.25 Z M 142.378906 241.5 " clip-rule="nonzero"/></clipPath><clipPath id="c7e6443d32"><path d="M 156.84375 241.683594 L 152.007812 246.433594 L 147.167969 241.683594 C 147.042969 241.558594 146.894531 241.496094 146.714844 241.5 L 142.707031 241.5 C 142.488281 241.5 142.378906 241.605469 142.378906 241.824219 L 142.378906 247.75 C 142.375 247.9375 142.441406 248.089844 142.574219 248.21875 L 148.324219 253.867188 L 151.246094 251 L 149.796875 251.496094 L 145.246094 247.023438 L 145.246094 243.609375 L 152.007812 250.253906 L 158.625 243.746094 L 158.625 247.164062 L 150.066406 255.574219 L 151.777344 257.261719 C 151.929688 257.40625 152.082031 257.40625 152.234375 257.261719 L 161.4375 248.21875 C 161.570312 248.089844 161.636719 247.933594 161.632812 247.75 L 161.632812 241.824219 C 161.632812 241.605469 161.523438 241.5 161.308594 241.5 L 157.296875 241.5 C 157.121094 241.496094 156.96875 241.558594 156.84375 241.683594 " clip-rule="evenodd"/></clipPath><linearGradient x1="21.452081" gradientTransform="matrix(0.0487688, 0, 0, 0.0487688, 142.380052, 241.498485)" y1="343.803684" x2="374.725996" gradientUnits="userSpaceOnUse" y2="-19.519017" id="d60f80f6d4"><stop stop-opacity="1" stop-color="rgb(23.899841%, 44.699097%, 92.89856%)" offset="0"/><stop stop-opacity="1" stop-color="rgb(23.899841%, 44.699097%, 92.89856%)" offset="0.25"/><stop stop-opacity="1" stop-color="rgb(23.899841%, 44.699097%, 92.89856%)" offset="0.28125"/><stop stop-opacity="1" stop-color="rgb(23.823547%, 44.833374%, 92.930603%)" offset="0.296875"/><stop stop-opacity="1" stop-color="rgb(23.641968%, 45.149231%, 93.005371%)" offset="0.304688"/><stop stop-opacity="1" stop-color="rgb(23.434448%, 45.515442%, 93.09082%)" offset="0.3125"/><stop stop-opacity="1" stop-color="rgb(23.225403%, 45.881653%, 93.17627%)" offset="0.320312"/><stop stop-opacity="1" stop-color="rgb(23.016357%, 46.247864%, 93.263245%)" offset="0.328125"/><stop stop-opacity="1" stop-color="rgb(22.808838%, 46.614075%, 93.348694%)" offset="0.335938"/><stop stop-opacity="1" stop-color="rgb(22.599792%, 46.97876%, 93.435669%)" offset="0.34375"/><stop stop-opacity="1" stop-color="rgb(22.392273%, 47.344971%, 93.521118%)" offset="0.351562"/><stop stop-opacity="1" stop-color="rgb(22.183228%, 47.711182%, 93.606567%)" offset="0.359375"/><stop stop-opacity="1" stop-color="rgb(21.975708%, 48.077393%, 93.693542%)" offset="0.367188"/><stop stop-opacity="1" stop-color="rgb(21.766663%, 48.442078%, 93.778992%)" offset="0.375"/><stop stop-opacity="1" stop-color="rgb(21.557617%, 48.808289%, 93.864441%)" offset="0.382812"/><stop stop-opacity="1" stop-color="rgb(21.350098%, 49.1745%, 93.951416%)" offset="0.390625"/><stop stop-opacity="1" stop-color="rgb(21.141052%, 49.54071%, 94.036865%)" offset="0.398438"/><stop stop-opacity="1" stop-color="rgb(20.933533%, 49.906921%, 94.12384%)" offset="0.40625"/><stop stop-opacity="1" stop-color="rgb(20.724487%, 50.271606%, 94.20929%)" offset="0.414062"/><stop stop-opacity="1" stop-color="rgb(20.516968%, 50.637817%, 94.294739%)" offset="0.421875"/><stop stop-opacity="1" stop-color="rgb(20.307922%, 51.004028%, 94.381714%)" offset="0.429688"/><stop stop-opacity="1" stop-color="rgb(20.098877%, 51.370239%, 94.467163%)" offset="0.4375"/><stop stop-opacity="1" stop-color="rgb(19.891357%, 51.734924%, 94.552612%)" offset="0.445312"/><stop stop-opacity="1" stop-color="rgb(19.682312%, 52.101135%, 94.639587%)" offset="0.453125"/><stop stop-opacity="1" stop-color="rgb(19.474792%, 52.467346%, 94.725037%)" offset="0.456895"/><stop stop-opacity="1" stop-color="rgb(19.371033%, 52.650452%, 94.769287%)" offset="0.460938"/><stop stop-opacity="1" stop-color="rgb(19.265747%, 52.833557%, 94.812012%)" offset="0.46875"/><stop stop-opacity="1" stop-color="rgb(19.058228%, 53.199768%, 94.897461%)" offset="0.476562"/><stop stop-opacity="1" stop-color="rgb(18.849182%, 53.564453%, 94.98291%)" offset="0.484375"/><stop stop-opacity="1" stop-color="rgb(18.641663%, 53.930664%, 95.069885%)" offset="0.492188"/><stop stop-opacity="1" stop-color="rgb(18.432617%, 54.296875%, 95.155334%)" offset="0.5"/><stop stop-opacity="1" stop-color="rgb(18.223572%, 54.663086%, 95.240784%)" offset="0.507812"/><stop stop-opacity="1" stop-color="rgb(18.016052%, 55.027771%, 95.327759%)" offset="0.515625"/><stop stop-opacity="1" stop-color="rgb(17.807007%, 55.393982%, 95.413208%)" offset="0.523437"/><stop stop-opacity="1" stop-color="rgb(17.599487%, 55.760193%, 95.500183%)" offset="0.53125"/><stop stop-opacity="1" stop-color="rgb(17.390442%, 56.126404%, 95.585632%)" offset="0.539062"/><stop stop-opacity="1" stop-color="rgb(17.182922%, 56.492615%, 95.671082%)" offset="0.543105"/><stop stop-opacity="1" stop-color="rgb(17.079163%, 56.67572%, 95.715332%)" offset="0.546875"/><stop stop-opacity="1" stop-color="rgb(16.973877%, 56.8573%, 95.758057%)" offset="0.554687"/><stop stop-opacity="1" stop-color="rgb(16.764832%, 57.223511%, 95.843506%)" offset="0.5625"/><stop stop-opacity="1" stop-color="rgb(16.557312%, 57.589722%, 95.928955%)" offset="0.570312"/><stop stop-opacity="1" stop-color="rgb(16.348267%, 57.955933%, 96.01593%)" offset="0.578125"/><stop stop-opacity="1" stop-color="rgb(16.140747%, 58.322144%, 96.101379%)" offset="0.585937"/><stop stop-opacity="1" stop-color="rgb(15.931702%, 58.686829%, 96.186829%)" offset="0.59375"/><stop stop-opacity="1" stop-color="rgb(15.724182%, 59.05304%, 96.273804%)" offset="0.601562"/><stop stop-opacity="1" stop-color="rgb(15.515137%, 59.41925%, 96.359253%)" offset="0.609375"/><stop stop-opacity="1" stop-color="rgb(15.307617%, 59.785461%, 96.446228%)" offset="0.617187"/><stop stop-opacity="1" stop-color="rgb(15.098572%, 60.150146%, 96.531677%)" offset="0.625"/><stop stop-opacity="1" stop-color="rgb(14.889526%, 60.516357%, 96.617126%)" offset="0.632812"/><stop stop-opacity="1" stop-color="rgb(14.682007%, 60.882568%, 96.704102%)" offset="0.640625"/><stop stop-opacity="1" stop-color="rgb(14.472961%, 61.248779%, 96.789551%)" offset="0.648438"/><stop stop-opacity="1" stop-color="rgb(14.265442%, 61.61499%, 96.875%)" offset="0.65625"/><stop stop-opacity="1" stop-color="rgb(14.056396%, 61.979675%, 96.961975%)" offset="0.664062"/><stop stop-opacity="1" stop-color="rgb(13.848877%, 62.345886%, 97.047424%)" offset="0.671875"/><stop stop-opacity="1" stop-color="rgb(13.639832%, 62.712097%, 97.134399%)" offset="0.679687"/><stop stop-opacity="1" stop-color="rgb(13.430786%, 63.078308%, 97.219849%)" offset="0.6875"/><stop stop-opacity="1" stop-color="rgb(13.223267%, 63.442993%, 97.305298%)" offset="0.695312"/><stop stop-opacity="1" stop-color="rgb(13.014221%, 63.809204%, 97.392273%)" offset="0.703125"/><stop stop-opacity="1" stop-color="rgb(12.806702%, 64.175415%, 97.477722%)" offset="0.710937"/><stop stop-opacity="1" stop-color="rgb(12.597656%, 64.541626%, 97.563171%)" offset="0.71875"/><stop stop-opacity="1" stop-color="rgb(12.390137%, 64.907837%, 97.650146%)" offset="0.726562"/><stop stop-opacity="1" stop-color="rgb(12.181091%, 65.272522%, 97.735596%)" offset="0.734375"/><stop stop-opacity="1" stop-color="rgb(11.972046%, 65.638733%, 97.822571%)" offset="0.742188"/><stop stop-opacity="1" stop-color="rgb(11.764526%, 66.004944%, 97.90802%)" offset="0.75"/><stop stop-opacity="1" stop-color="rgb(11.555481%, 66.371155%, 97.993469%)" offset="0.757812"/><stop stop-opacity="1" stop-color="rgb(11.347961%, 66.737366%, 98.080444%)" offset="0.765625"/><stop stop-opacity="1" stop-color="rgb(11.138916%, 67.102051%, 98.165894%)" offset="0.773438"/><stop stop-opacity="1" stop-color="rgb(10.931396%, 67.468262%, 98.251343%)" offset="0.78125"/><stop stop-opacity="1" stop-color="rgb(10.722351%, 67.834473%, 98.338318%)" offset="0.789062"/><stop stop-opacity="1" stop-color="rgb(10.514832%, 68.200684%, 98.423767%)" offset="0.796875"/><stop stop-opacity="1" stop-color="rgb(10.305786%, 68.565369%, 98.510742%)" offset="0.804687"/><stop stop-opacity="1" stop-color="rgb(10.096741%, 68.93158%, 98.596191%)" offset="0.8125"/><stop stop-opacity="1" stop-color="rgb(9.889221%, 69.297791%, 98.681641%)" offset="0.820312"/><stop stop-opacity="1" stop-color="rgb(9.680176%, 69.664001%, 98.768616%)" offset="0.828125"/><stop stop-opacity="1" stop-color="rgb(9.472656%, 70.030212%, 98.854065%)" offset="0.835937"/><stop stop-opacity="1" stop-color="rgb(9.263611%, 70.394897%, 98.939514%)" offset="0.84375"/><stop stop-opacity="1" stop-color="rgb(9.056091%, 70.761108%, 99.026489%)" offset="0.851562"/><stop stop-opacity="1" stop-color="rgb(8.847046%, 71.127319%, 99.111938%)" offset="0.859375"/><stop stop-opacity="1" stop-color="rgb(8.638%, 71.49353%, 99.198914%)" offset="0.867188"/><stop stop-opacity="1" stop-color="rgb(8.430481%, 71.858215%, 99.284363%)" offset="0.875"/><stop stop-opacity="1" stop-color="rgb(8.221436%, 72.224426%, 99.369812%)" offset="0.882812"/><stop stop-opacity="1" stop-color="rgb(8.013916%, 72.590637%, 99.456787%)" offset="0.890625"/><stop stop-opacity="1" stop-color="rgb(7.804871%, 72.956848%, 99.542236%)" offset="0.898438"/><stop stop-opacity="1" stop-color="rgb(7.597351%, 73.323059%, 99.627686%)" offset="0.90625"/><stop stop-opacity="1" stop-color="rgb(7.388306%, 73.687744%, 99.714661%)" offset="0.914062"/><stop stop-opacity="1" stop-color="rgb(7.17926%, 74.053955%, 99.80011%)" offset="0.921875"/><stop stop-opacity="1" stop-color="rgb(6.971741%, 74.420166%, 99.887085%)" offset="0.929687"/><stop stop-opacity="1" stop-color="rgb(6.782532%, 74.751282%, 99.964905%)" offset="0.9375"/><stop stop-opacity="1" stop-color="rgb(6.698608%, 74.899292%, 100%)" offset="1"/></linearGradient><clipPath id="13e1e0eef3"><path d="M 134.269531 143.667969 L 240.722656 143.667969 L 240.722656 231.40625 L 134.269531 231.40625 Z M 134.269531 143.667969 " clip-rule="nonzero"/></clipPath><clipPath id="75842cf6af"><path d="M 214.246094 144.691406 L 187.496094 170.957031 L 160.75 144.691406 C 160.058594 143.996094 159.222656 143.652344 158.242188 143.667969 L 136.078125 143.667969 C 135.578125 143.667969 135.152344 143.84375 134.800781 144.199219 C 134.445312 144.550781 134.269531 144.976562 134.269531 145.476562 L 134.269531 178.234375 C 134.246094 179.257812 134.605469 180.121094 135.347656 180.824219 L 167.140625 212.046875 L 183.289062 196.195312 L 175.28125 198.945312 L 150.125 174.21875 L 150.125 155.34375 L 187.496094 192.066406 L 224.085938 156.097656 L 224.085938 175 L 176.765625 221.484375 L 186.230469 230.816406 C 186.582031 231.152344 187.007812 231.324219 187.496094 231.324219 C 187.988281 231.324219 188.410156 231.152344 188.765625 230.816406 L 239.644531 180.824219 C 240.378906 180.117188 240.738281 179.253906 240.722656 178.234375 L 240.722656 145.476562 C 240.722656 144.976562 240.546875 144.550781 240.195312 144.199219 C 239.839844 143.84375 239.414062 143.667969 238.917969 143.667969 L 216.753906 143.667969 C 215.769531 143.652344 214.933594 143.996094 214.246094 144.691406 " clip-rule="evenodd"/></clipPath><linearGradient x1="20.382109" gradientTransform="matrix(0.269638, 0, 0, 0.269638, 134.270204, 143.668147)" y1="344.904092" x2="374.725875" gradientUnits="userSpaceOnUse" y2="-19.518893" id="ebb6fcc236"><stop stop-opacity="1" stop-color="rgb(23.899841%, 44.699097%, 92.89856%)" offset="0"/><stop stop-opacity="1" stop-color="rgb(23.899841%, 44.699097%, 92.89856%)" offset="0.25"/><stop stop-opacity="1" stop-color="rgb(23.899841%, 44.699097%, 92.89856%)" offset="0.28125"/><stop stop-opacity="1" stop-color="rgb(23.851013%, 44.78302%, 92.918396%)" offset="0.296875"/><stop stop-opacity="1" stop-color="rgb(23.698425%, 45.050049%, 92.980957%)" offset="0.304688"/><stop stop-opacity="1" stop-color="rgb(23.48938%, 45.417786%, 93.067932%)" offset="0.3125"/><stop stop-opacity="1" stop-color="rgb(23.280334%, 45.783997%, 93.153381%)" offset="0.320312"/><stop stop-opacity="1" stop-color="rgb(23.071289%, 46.151733%, 93.240356%)" offset="0.328125"/><stop stop-opacity="1" stop-color="rgb(22.862244%, 46.517944%, 93.327332%)" offset="0.335938"/><stop stop-opacity="1" stop-color="rgb(22.653198%, 46.885681%, 93.412781%)" offset="0.34375"/><stop stop-opacity="1" stop-color="rgb(22.444153%, 47.251892%, 93.499756%)" offset="0.351563"/><stop stop-opacity="1" stop-color="rgb(22.235107%, 47.619629%, 93.585205%)" offset="0.359375"/><stop stop-opacity="1" stop-color="rgb(22.026062%, 47.98584%, 93.67218%)" offset="0.367188"/><stop stop-opacity="1" stop-color="rgb(21.817017%, 48.353577%, 93.757629%)" offset="0.375"/><stop stop-opacity="1" stop-color="rgb(21.607971%, 48.719788%, 93.844604%)" offset="0.382812"/><stop stop-opacity="1" stop-color="rgb(21.398926%, 49.087524%, 93.930054%)" offset="0.390625"/><stop stop-opacity="1" stop-color="rgb(21.18988%, 49.453735%, 94.017029%)" offset="0.398438"/><stop stop-opacity="1" stop-color="rgb(20.980835%, 49.821472%, 94.102478%)" offset="0.40625"/><stop stop-opacity="1" stop-color="rgb(20.77179%, 50.187683%, 94.189453%)" offset="0.414063"/><stop stop-opacity="1" stop-color="rgb(20.562744%, 50.55542%, 94.274902%)" offset="0.421875"/><stop stop-opacity="1" stop-color="rgb(20.353699%, 50.921631%, 94.361877%)" offset="0.429688"/><stop stop-opacity="1" stop-color="rgb(20.144653%, 51.289368%, 94.448853%)" offset="0.4375"/><stop stop-opacity="1" stop-color="rgb(19.935608%, 51.655579%, 94.534302%)" offset="0.445312"/><stop stop-opacity="1" stop-color="rgb(19.726562%, 52.023315%, 94.621277%)" offset="0.453125"/><stop stop-opacity="1" stop-color="rgb(19.517517%, 52.389526%, 94.706726%)" offset="0.458535"/><stop stop-opacity="1" stop-color="rgb(19.413757%, 52.574158%, 94.750977%)" offset="0.460938"/><stop stop-opacity="1" stop-color="rgb(19.308472%, 52.757263%, 94.793701%)" offset="0.46875"/><stop stop-opacity="1" stop-color="rgb(19.099426%, 53.123474%, 94.87915%)" offset="0.476562"/><stop stop-opacity="1" stop-color="rgb(18.890381%, 53.491211%, 94.966125%)" offset="0.484375"/><stop stop-opacity="1" stop-color="rgb(18.681335%, 53.857422%, 95.051575%)" offset="0.492188"/><stop stop-opacity="1" stop-color="rgb(18.47229%, 54.225159%, 95.13855%)" offset="0.5"/><stop stop-opacity="1" stop-color="rgb(18.263245%, 54.59137%, 95.223999%)" offset="0.507812"/><stop stop-opacity="1" stop-color="rgb(18.054199%, 54.959106%, 95.310974%)" offset="0.515625"/><stop stop-opacity="1" stop-color="rgb(17.84668%, 55.325317%, 95.397949%)" offset="0.523438"/><stop stop-opacity="1" stop-color="rgb(17.637634%, 55.693054%, 95.483398%)" offset="0.53125"/><stop stop-opacity="1" stop-color="rgb(17.428589%, 56.059265%, 95.570374%)" offset="0.539062"/><stop stop-opacity="1" stop-color="rgb(17.219543%, 56.427002%, 95.655823%)" offset="0.541465"/><stop stop-opacity="1" stop-color="rgb(17.115784%, 56.610107%, 95.700073%)" offset="0.546875"/><stop stop-opacity="1" stop-color="rgb(17.010498%, 56.793213%, 95.742798%)" offset="0.554688"/><stop stop-opacity="1" stop-color="rgb(16.801453%, 57.16095%, 95.828247%)" offset="0.5625"/><stop stop-opacity="1" stop-color="rgb(16.592407%, 57.528687%, 95.915222%)" offset="0.570312"/><stop stop-opacity="1" stop-color="rgb(16.383362%, 57.894897%, 96.000671%)" offset="0.578125"/><stop stop-opacity="1" stop-color="rgb(16.174316%, 58.262634%, 96.087646%)" offset="0.585938"/><stop stop-opacity="1" stop-color="rgb(15.965271%, 58.628845%, 96.173096%)" offset="0.59375"/><stop stop-opacity="1" stop-color="rgb(15.756226%, 58.996582%, 96.260071%)" offset="0.601562"/><stop stop-opacity="1" stop-color="rgb(15.54718%, 59.362793%, 96.347046%)" offset="0.609375"/><stop stop-opacity="1" stop-color="rgb(15.338135%, 59.73053%, 96.432495%)" offset="0.617187"/><stop stop-opacity="1" stop-color="rgb(15.129089%, 60.096741%, 96.51947%)" offset="0.625"/><stop stop-opacity="1" stop-color="rgb(14.920044%, 60.464478%, 96.604919%)" offset="0.632812"/><stop stop-opacity="1" stop-color="rgb(14.710999%, 60.830688%, 96.691895%)" offset="0.640625"/><stop stop-opacity="1" stop-color="rgb(14.501953%, 61.198425%, 96.777344%)" offset="0.648437"/><stop stop-opacity="1" stop-color="rgb(14.292908%, 61.564636%, 96.864319%)" offset="0.65625"/><stop stop-opacity="1" stop-color="rgb(14.083862%, 61.932373%, 96.949768%)" offset="0.664062"/><stop stop-opacity="1" stop-color="rgb(13.874817%, 62.298584%, 97.036743%)" offset="0.671875"/><stop stop-opacity="1" stop-color="rgb(13.665771%, 62.666321%, 97.122192%)" offset="0.679688"/><stop stop-opacity="1" stop-color="rgb(13.456726%, 63.032532%, 97.209167%)" offset="0.6875"/><stop stop-opacity="1" stop-color="rgb(13.247681%, 63.400269%, 97.296143%)" offset="0.695312"/><stop stop-opacity="1" stop-color="rgb(13.038635%, 63.766479%, 97.381592%)" offset="0.703125"/><stop stop-opacity="1" stop-color="rgb(12.82959%, 64.134216%, 97.468567%)" offset="0.710938"/><stop stop-opacity="1" stop-color="rgb(12.620544%, 64.500427%, 97.554016%)" offset="0.71875"/><stop stop-opacity="1" stop-color="rgb(12.411499%, 64.868164%, 97.640991%)" offset="0.726562"/><stop stop-opacity="1" stop-color="rgb(12.202454%, 65.234375%, 97.72644%)" offset="0.734375"/><stop stop-opacity="1" stop-color="rgb(11.993408%, 65.602112%, 97.813416%)" offset="0.742187"/><stop stop-opacity="1" stop-color="rgb(11.784363%, 65.968323%, 97.898865%)" offset="0.75"/><stop stop-opacity="1" stop-color="rgb(11.575317%, 66.33606%, 97.98584%)" offset="0.757812"/><stop stop-opacity="1" stop-color="rgb(11.366272%, 66.702271%, 98.071289%)" offset="0.765625"/><stop stop-opacity="1" stop-color="rgb(11.157227%, 67.070007%, 98.158264%)" offset="0.773437"/><stop stop-opacity="1" stop-color="rgb(10.948181%, 67.436218%, 98.243713%)" offset="0.78125"/><stop stop-opacity="1" stop-color="rgb(10.739136%, 67.803955%, 98.330688%)" offset="0.789062"/><stop stop-opacity="1" stop-color="rgb(10.53009%, 68.170166%, 98.417664%)" offset="0.796875"/><stop stop-opacity="1" stop-color="rgb(10.321045%, 68.537903%, 98.503113%)" offset="0.804688"/><stop stop-opacity="1" stop-color="rgb(10.112%, 68.904114%, 98.590088%)" offset="0.8125"/><stop stop-opacity="1" stop-color="rgb(9.902954%, 69.271851%, 98.675537%)" offset="0.820312"/><stop stop-opacity="1" stop-color="rgb(9.693909%, 69.638062%, 98.762512%)" offset="0.828125"/><stop stop-opacity="1" stop-color="rgb(9.484863%, 70.005798%, 98.847961%)" offset="0.835938"/><stop stop-opacity="1" stop-color="rgb(9.275818%, 70.372009%, 98.934937%)" offset="0.84375"/><stop stop-opacity="1" stop-color="rgb(9.066772%, 70.739746%, 99.020386%)" offset="0.851562"/><stop stop-opacity="1" stop-color="rgb(8.857727%, 71.105957%, 99.107361%)" offset="0.859375"/><stop stop-opacity="1" stop-color="rgb(8.648682%, 71.473694%, 99.19281%)" offset="0.867188"/><stop stop-opacity="1" stop-color="rgb(8.441162%, 71.839905%, 99.279785%)" offset="0.875"/><stop stop-opacity="1" stop-color="rgb(8.232117%, 72.207642%, 99.36676%)" offset="0.882812"/><stop stop-opacity="1" stop-color="rgb(8.023071%, 72.573853%, 99.452209%)" offset="0.890625"/><stop stop-opacity="1" stop-color="rgb(7.814026%, 72.941589%, 99.539185%)" offset="0.898437"/><stop stop-opacity="1" stop-color="rgb(7.60498%, 73.3078%, 99.624634%)" offset="0.90625"/><stop stop-opacity="1" stop-color="rgb(7.395935%, 73.675537%, 99.711609%)" offset="0.914062"/><stop stop-opacity="1" stop-color="rgb(7.18689%, 74.041748%, 99.797058%)" offset="0.921875"/><stop stop-opacity="1" stop-color="rgb(6.977844%, 74.409485%, 99.884033%)" offset="0.929687"/><stop stop-opacity="1" stop-color="rgb(6.785583%, 74.745178%, 99.963379%)" offset="0.9375"/><stop stop-opacity="1" stop-color="rgb(6.698608%, 74.899292%, 100%)" offset="1"/></linearGradient><clipPath id="66d2aacc48"><path d="M 142 182 L 144 182 L 144 183.40625 L 142 183.40625 Z M 142 182 " clip-rule="nonzero"/></clipPath><clipPath id="f6fcf71be1"><path d="M 134.269531 146 L 168 146 L 168 161 L 134.269531 161 Z M 134.269531 146 " clip-rule="nonzero"/></clipPath><clipPath id="f0bcbddfea"><path d="M 134.269531 148 L 156 148 L 156 171 L 134.269531 171 Z M 134.269531 148 " clip-rule="nonzero"/></clipPath><clipPath id="23e3d11351"><path d="M 134.269531 145 L 164 145 L 164 157 L 134.269531 157 Z M 134.269531 145 " clip-rule="nonzero"/></clipPath><clipPath id="202eed5983"><path d="M 146 143.65625 L 180 143.65625 L 180 152 L 146 152 Z M 146 143.65625 " clip-rule="nonzero"/></clipPath><clipPath id="e78f084792"><path d="M 149 143.65625 L 176 143.65625 L 176 149 L 149 149 Z M 149 143.65625 " clip-rule="nonzero"/></clipPath><clipPath id="4ecac1105e"><path d="M 134.269531 150 L 143 150 L 143 175 L 134.269531 175 Z M 134.269531 150 " clip-rule="nonzero"/></clipPath><clipPath id="2642a5909e"><path d="M 136 169 L 144 169 L 144 183.40625 L 136 183.40625 Z M 136 169 " clip-rule="nonzero"/></clipPath><clipPath id="439fc8dfb9"><path d="M 179 149 L 180.019531 149 L 180.019531 151 L 179 151 Z M 179 149 " clip-rule="nonzero"/></clipPath></defs><g fill="#3d72ed" fill-opacity="1"><g transform="translate(163.029661, 256.929358)"><g><path d="M 11.140625 -15.15625 C 11.285156 -15.382812 11.492188 -15.539062 11.765625 -15.625 C 12.035156 -15.71875 12.375 -15.765625 12.78125 -15.765625 C 13.1875 -15.765625 13.507812 -15.726562 13.75 -15.65625 C 14 -15.582031 14.1875 -15.492188 14.3125 -15.390625 C 14.445312 -15.296875 14.539062 -15.144531 14.59375 -14.9375 C 14.6875 -14.695312 14.734375 -14.328125 14.734375 -13.828125 L 14.734375 -7.34375 C 14.734375 -5.457031 14.144531 -3.738281 12.96875 -2.1875 C 12.394531 -1.457031 11.65625 -0.867188 10.75 -0.421875 C 9.851562 0.0234375 8.859375 0.25 7.765625 0.25 C 6.671875 0.25 5.675781 0.0234375 4.78125 -0.421875 C 3.882812 -0.878906 3.15625 -1.484375 2.59375 -2.234375 C 1.4375 -3.753906 0.859375 -5.472656 0.859375 -7.390625 L 0.859375 -13.84375 C 0.859375 -14.1875 0.867188 -14.441406 0.890625 -14.609375 C 0.910156 -14.773438 0.976562 -14.960938 1.09375 -15.171875 C 1.207031 -15.390625 1.398438 -15.539062 1.671875 -15.625 C 1.941406 -15.71875 2.304688 -15.765625 2.765625 -15.765625 C 3.222656 -15.765625 3.585938 -15.71875 3.859375 -15.625 C 4.128906 -15.539062 4.316406 -15.390625 4.421875 -15.171875 C 4.597656 -14.847656 4.6875 -14.398438 4.6875 -13.828125 L 4.6875 -7.390625 C 4.6875 -6.515625 4.898438 -5.679688 5.328125 -4.890625 C 5.535156 -4.492188 5.851562 -4.171875 6.28125 -3.921875 C 6.71875 -3.679688 7.226562 -3.5625 7.8125 -3.5625 C 8.851562 -3.5625 9.628906 -3.945312 10.140625 -4.71875 C 10.660156 -5.488281 10.921875 -6.382812 10.921875 -7.40625 L 10.921875 -13.96875 C 10.921875 -14.53125 10.992188 -14.925781 11.140625 -15.15625 Z M 11.140625 -15.15625 "/></g></g></g><g fill="#3d72ed" fill-opacity="1"><g transform="translate(178.607415, 256.929358)"><g><path d="M 12.90625 -2.65625 C 13.113281 -2.144531 13.21875 -1.773438 13.21875 -1.546875 C 13.21875 -1.003906 12.773438 -0.546875 11.890625 -0.171875 C 11.429688 0.0234375 11.0625 0.125 10.78125 0.125 C 10.507812 0.125 10.28125 0.0546875 10.09375 -0.078125 C 9.914062 -0.210938 9.785156 -0.351562 9.703125 -0.5 C 9.554688 -0.769531 9 -2.0625 8.03125 -4.375 L 7.359375 -4.34375 L 4.65625 -4.34375 L 4.65625 -1.90625 C 4.65625 -1.582031 4.644531 -1.335938 4.625 -1.171875 C 4.601562 -1.003906 4.535156 -0.8125 4.421875 -0.59375 C 4.222656 -0.207031 3.664062 -0.015625 2.75 -0.015625 C 1.75 -0.015625 1.160156 -0.28125 0.984375 -0.8125 C 0.898438 -1.0625 0.859375 -1.4375 0.859375 -1.9375 L 0.859375 -13.84375 C 0.859375 -14.175781 0.867188 -14.421875 0.890625 -14.578125 C 0.910156 -14.742188 0.976562 -14.9375 1.09375 -15.15625 C 1.289062 -15.539062 1.847656 -15.734375 2.765625 -15.734375 L 7.40625 -15.734375 C 8.664062 -15.734375 9.890625 -15.273438 11.078125 -14.359375 C 11.648438 -13.921875 12.117188 -13.320312 12.484375 -12.5625 C 12.859375 -11.800781 13.046875 -10.957031 13.046875 -10.03125 C 13.046875 -8.40625 12.507812 -7.070312 11.4375 -6.03125 C 11.757812 -5.269531 12.25 -4.144531 12.90625 -2.65625 Z M 4.65625 -8.140625 L 7.40625 -8.140625 C 7.820312 -8.140625 8.238281 -8.296875 8.65625 -8.609375 C 9.070312 -8.921875 9.28125 -9.390625 9.28125 -10.015625 C 9.28125 -10.648438 9.070312 -11.128906 8.65625 -11.453125 C 8.238281 -11.773438 7.804688 -11.9375 7.359375 -11.9375 L 4.65625 -11.9375 Z M 4.65625 -8.140625 "/></g></g></g><g fill="#3d72ed" fill-opacity="1"><g transform="translate(192.14676, 256.929358)"><g><path d="M 12.46875 -12.5625 C 12.84375 -11.800781 13.03125 -10.953125 13.03125 -10.015625 C 13.03125 -9.085938 12.84375 -8.25 12.46875 -7.5 C 12.101562 -6.75 11.625 -6.148438 11.03125 -5.703125 C 9.84375 -4.796875 8.613281 -4.34375 7.34375 -4.34375 L 4.65625 -4.34375 L 4.65625 -1.90625 C 4.65625 -1.582031 4.644531 -1.335938 4.625 -1.171875 C 4.601562 -1.003906 4.535156 -0.8125 4.421875 -0.59375 C 4.222656 -0.207031 3.664062 -0.015625 2.75 -0.015625 C 1.75 -0.015625 1.160156 -0.28125 0.984375 -0.8125 C 0.898438 -1.0625 0.859375 -1.4375 0.859375 -1.9375 L 0.859375 -13.84375 C 0.859375 -14.175781 0.867188 -14.421875 0.890625 -14.578125 C 0.910156 -14.742188 0.976562 -14.9375 1.09375 -15.15625 C 1.289062 -15.539062 1.847656 -15.734375 2.765625 -15.734375 L 7.359375 -15.734375 C 8.617188 -15.734375 9.84375 -15.273438 11.03125 -14.359375 C 11.625 -13.921875 12.101562 -13.320312 12.46875 -12.5625 Z M 7.359375 -8.140625 C 7.785156 -8.140625 8.207031 -8.296875 8.625 -8.609375 C 9.039062 -8.921875 9.25 -9.390625 9.25 -10.015625 C 9.25 -10.648438 9.039062 -11.128906 8.625 -11.453125 C 8.207031 -11.773438 7.78125 -11.9375 7.34375 -11.9375 L 4.65625 -11.9375 L 4.65625 -8.140625 Z M 7.359375 -8.140625 "/></g></g></g><g fill="#3d72ed" fill-opacity="1"><g transform="translate(205.707561, 256.929358)"><g><path d="M 10.578125 -15.15625 C 10.691406 -15.375 10.882812 -15.523438 11.15625 -15.609375 C 11.4375 -15.691406 11.78125 -15.734375 12.1875 -15.734375 C 12.601562 -15.734375 12.929688 -15.695312 13.171875 -15.625 C 13.421875 -15.550781 13.609375 -15.460938 13.734375 -15.359375 C 13.867188 -15.265625 13.972656 -15.125 14.046875 -14.9375 C 14.109375 -14.695312 14.140625 -14.328125 14.140625 -13.828125 L 14.140625 -1.90625 C 14.140625 -1.582031 14.128906 -1.335938 14.109375 -1.171875 C 14.085938 -1.003906 14.019531 -0.8125 13.90625 -0.59375 C 13.707031 -0.207031 13.148438 -0.015625 12.234375 -0.015625 C 11.234375 -0.015625 10.648438 -0.28125 10.484375 -0.8125 C 10.390625 -1.0625 10.34375 -1.4375 10.34375 -1.9375 L 10.34375 -6.296875 L 4.65625 -6.296875 L 4.65625 -1.90625 C 4.65625 -1.582031 4.644531 -1.335938 4.625 -1.171875 C 4.601562 -1.003906 4.535156 -0.8125 4.421875 -0.59375 C 4.222656 -0.207031 3.664062 -0.015625 2.75 -0.015625 C 1.75 -0.015625 1.160156 -0.28125 0.984375 -0.8125 C 0.898438 -1.0625 0.859375 -1.4375 0.859375 -1.9375 L 0.859375 -13.84375 C 0.859375 -14.175781 0.867188 -14.421875 0.890625 -14.578125 C 0.910156 -14.742188 0.976562 -14.9375 1.09375 -15.15625 C 1.289062 -15.539062 1.847656 -15.734375 2.765625 -15.734375 C 3.765625 -15.734375 4.359375 -15.46875 4.546875 -14.9375 C 4.617188 -14.695312 4.65625 -14.328125 4.65625 -13.828125 L 4.65625 -9.453125 L 10.34375 -9.453125 L 10.34375 -13.84375 C 10.34375 -14.175781 10.351562 -14.421875 10.375 -14.578125 C 10.394531 -14.742188 10.460938 -14.9375 10.578125 -15.15625 Z M 10.578125 -15.15625 "/></g></g></g><g fill="#3d72ed" fill-opacity="1"><g transform="translate(220.705969, 256.929358)"><g><path d="M 13.359375 -15.4375 C 14.054688 -14.945312 14.40625 -14.472656 14.40625 -14.015625 C 14.40625 -13.742188 14.238281 -13.363281 13.90625 -12.875 L 9.28125 -5.953125 L 9.28125 -1.84375 C 9.28125 -1.519531 9.265625 -1.273438 9.234375 -1.109375 C 9.210938 -0.941406 9.144531 -0.75 9.03125 -0.53125 C 8.914062 -0.320312 8.722656 -0.171875 8.453125 -0.078125 C 8.179688 0.00390625 7.816406 0.046875 7.359375 0.046875 C 6.898438 0.046875 6.535156 0.00390625 6.265625 -0.078125 C 5.992188 -0.171875 5.800781 -0.328125 5.6875 -0.546875 C 5.570312 -0.765625 5.503906 -0.957031 5.484375 -1.125 C 5.460938 -1.289062 5.453125 -1.546875 5.453125 -1.890625 L 5.453125 -5.953125 L 0.8125 -12.875 C 0.488281 -13.363281 0.328125 -13.742188 0.328125 -14.015625 C 0.328125 -14.472656 0.640625 -14.910156 1.265625 -15.328125 C 1.898438 -15.753906 2.351562 -15.96875 2.625 -15.96875 C 2.894531 -15.96875 3.109375 -15.910156 3.265625 -15.796875 C 3.503906 -15.640625 3.757812 -15.347656 4.03125 -14.921875 L 7.359375 -9.59375 L 10.6875 -14.921875 C 10.957031 -15.347656 11.191406 -15.628906 11.390625 -15.765625 C 11.597656 -15.898438 11.832031 -15.96875 12.09375 -15.96875 C 12.363281 -15.96875 12.785156 -15.789062 13.359375 -15.4375 Z M 13.359375 -15.4375 "/></g></g></g><g fill="#3d72ed" fill-opacity="1"><g transform="translate(164.805819, 270.499414)"><g/></g></g><g fill="#3d72ed" fill-opacity="1"><g transform="translate(169.707499, 270.499414)"><g><path d="M 0.578125 0 L 0.578125 -5.9375 L 2.75 -5.9375 C 3.226562 -5.9375 3.617188 -5.851562 3.921875 -5.6875 C 4.234375 -5.53125 4.46875 -5.3125 4.625 -5.03125 C 4.78125 -4.757812 4.859375 -4.457031 4.859375 -4.125 C 4.859375 -3.769531 4.757812 -3.441406 4.5625 -3.140625 C 4.375 -2.835938 4.082031 -2.617188 3.6875 -2.484375 L 4.90625 0 L 3.671875 0 L 2.5625 -2.34375 L 1.65625 -2.34375 L 1.65625 0 Z M 1.65625 -3.140625 L 2.6875 -3.140625 C 3.050781 -3.140625 3.316406 -3.226562 3.484375 -3.40625 C 3.648438 -3.582031 3.734375 -3.8125 3.734375 -4.09375 C 3.734375 -4.375 3.648438 -4.597656 3.484375 -4.765625 C 3.316406 -4.941406 3.050781 -5.03125 2.6875 -5.03125 L 1.65625 -5.03125 Z M 1.65625 -3.140625 "/></g></g></g><g fill="#3d72ed" fill-opacity="1"><g transform="translate(177.872415, 270.499414)"><g><path d="M 0.578125 0 L 0.578125 -5.9375 L 4.453125 -5.9375 L 4.453125 -5.0625 L 1.65625 -5.0625 L 1.65625 -3.4375 L 4.203125 -3.4375 L 4.203125 -2.59375 L 1.65625 -2.59375 L 1.65625 -0.875 L 4.453125 -0.875 L 4.453125 0 Z M 0.578125 0 "/></g></g></g><g fill="#3d72ed" fill-opacity="1"><g transform="translate(185.655789, 270.499414)"><g><path d="M 0.578125 0 L 0.578125 -5.9375 L 2.78125 -5.9375 C 3.25 -5.9375 3.640625 -5.859375 3.953125 -5.703125 C 4.265625 -5.546875 4.492188 -5.328125 4.640625 -5.046875 C 4.796875 -4.765625 4.875 -4.453125 4.875 -4.109375 C 4.875 -3.785156 4.800781 -3.484375 4.65625 -3.203125 C 4.507812 -2.929688 4.28125 -2.710938 3.96875 -2.546875 C 3.65625 -2.378906 3.257812 -2.296875 2.78125 -2.296875 L 1.65625 -2.296875 L 1.65625 0 Z M 1.65625 -3.1875 L 2.703125 -3.1875 C 3.085938 -3.1875 3.363281 -3.269531 3.53125 -3.4375 C 3.695312 -3.601562 3.78125 -3.828125 3.78125 -4.109375 C 3.78125 -4.410156 3.695312 -4.644531 3.53125 -4.8125 C 3.363281 -4.976562 3.085938 -5.0625 2.703125 -5.0625 L 1.65625 -5.0625 Z M 1.65625 -3.1875 "/></g></g></g><g fill="#3d72ed" fill-opacity="1"><g transform="translate(193.685046, 270.499414)"><g><path d="M 3.359375 0.109375 C 2.765625 0.109375 2.242188 -0.0195312 1.796875 -0.28125 C 1.359375 -0.539062 1.007812 -0.898438 0.75 -1.359375 C 0.5 -1.828125 0.375 -2.363281 0.375 -2.96875 C 0.375 -3.570312 0.5 -4.101562 0.75 -4.5625 C 1.007812 -5.03125 1.359375 -5.394531 1.796875 -5.65625 C 2.242188 -5.914062 2.765625 -6.046875 3.359375 -6.046875 C 3.941406 -6.046875 4.457031 -5.914062 4.90625 -5.65625 C 5.351562 -5.394531 5.703125 -5.03125 5.953125 -4.5625 C 6.203125 -4.101562 6.328125 -3.570312 6.328125 -2.96875 C 6.328125 -2.363281 6.203125 -1.828125 5.953125 -1.359375 C 5.703125 -0.898438 5.351562 -0.539062 4.90625 -0.28125 C 4.457031 -0.0195312 3.941406 0.109375 3.359375 0.109375 Z M 3.359375 -0.875 C 3.921875 -0.875 4.367188 -1.0625 4.703125 -1.4375 C 5.046875 -1.8125 5.21875 -2.320312 5.21875 -2.96875 C 5.21875 -3.613281 5.046875 -4.125 4.703125 -4.5 C 4.367188 -4.875 3.921875 -5.0625 3.359375 -5.0625 C 2.796875 -5.0625 2.34375 -4.875 2 -4.5 C 1.664062 -4.125 1.5 -3.613281 1.5 -2.96875 C 1.5 -2.320312 1.664062 -1.8125 2 -1.4375 C 2.34375 -1.0625 2.796875 -0.875 3.359375 -0.875 Z M 3.359375 -0.875 "/></g></g></g><g fill="#3d72ed" fill-opacity="1"><g transform="translate(203.274369, 270.499414)"><g><path d="M 2.609375 0.109375 C 2.171875 0.109375 1.785156 0.0351562 1.453125 -0.109375 C 1.117188 -0.265625 0.851562 -0.484375 0.65625 -0.765625 C 0.46875 -1.046875 0.367188 -1.390625 0.359375 -1.796875 L 1.515625 -1.796875 C 1.523438 -1.515625 1.625 -1.28125 1.8125 -1.09375 C 2 -0.90625 2.257812 -0.8125 2.59375 -0.8125 C 2.882812 -0.8125 3.113281 -0.878906 3.28125 -1.015625 C 3.445312 -1.148438 3.53125 -1.332031 3.53125 -1.5625 C 3.53125 -1.8125 3.457031 -2.003906 3.3125 -2.140625 C 3.164062 -2.273438 2.96875 -2.382812 2.71875 -2.46875 C 2.46875 -2.550781 2.203125 -2.640625 1.921875 -2.734375 C 1.460938 -2.898438 1.113281 -3.101562 0.875 -3.34375 C 0.632812 -3.59375 0.515625 -3.925781 0.515625 -4.34375 C 0.503906 -4.695312 0.582031 -5 0.75 -5.25 C 0.925781 -5.5 1.164062 -5.691406 1.46875 -5.828125 C 1.769531 -5.972656 2.113281 -6.046875 2.5 -6.046875 C 2.894531 -6.046875 3.242188 -5.972656 3.546875 -5.828125 C 3.847656 -5.679688 4.082031 -5.484375 4.25 -5.234375 C 4.425781 -4.984375 4.523438 -4.679688 4.546875 -4.328125 L 3.375 -4.328125 C 3.375 -4.535156 3.296875 -4.71875 3.140625 -4.875 C 2.984375 -5.039062 2.765625 -5.125 2.484375 -5.125 C 2.242188 -5.132812 2.039062 -5.078125 1.875 -4.953125 C 1.71875 -4.828125 1.640625 -4.648438 1.640625 -4.421875 C 1.640625 -4.222656 1.703125 -4.066406 1.828125 -3.953125 C 1.953125 -3.835938 2.125 -3.738281 2.34375 -3.65625 C 2.5625 -3.570312 2.804688 -3.488281 3.078125 -3.40625 C 3.367188 -3.300781 3.632812 -3.179688 3.875 -3.046875 C 4.125 -2.910156 4.320312 -2.726562 4.46875 -2.5 C 4.613281 -2.28125 4.6875 -1.992188 4.6875 -1.640625 C 4.6875 -1.328125 4.609375 -1.035156 4.453125 -0.765625 C 4.296875 -0.503906 4.0625 -0.289062 3.75 -0.125 C 3.4375 0.03125 3.054688 0.109375 2.609375 0.109375 Z M 2.609375 0.109375 "/></g></g></g><g clip-path="url(#e483321039)"><g clip-path="url(#c7e6443d32)"><path fill="url(#d60f80f6d4)" d="M 142.378906 241.5 L 142.378906 257.25 L 161.632812 257.25 L 161.632812 241.5 Z M 142.378906 241.5 " fill-rule="nonzero"/></g></g><g clip-path="url(#13e1e0eef3)"><g clip-path="url(#75842cf6af)"><path fill="url(#ebb6fcc236)" d="M 134.269531 143.667969 L 134.269531 231.324219 L 240.722656 231.324219 L 240.722656 143.667969 Z M 134.269531 143.667969 " fill-rule="nonzero"/></g></g><g clip-path="url(#66d2aacc48)"><path fill="#11bfff" d="M 143.941406 182.964844 C 143.941406 183.121094 143.886719 183.25 143.777344 183.359375 C 143.667969 183.46875 143.535156 183.523438 143.378906 183.523438 C 143.226562 183.523438 143.09375 183.46875 142.984375 183.359375 C 142.875 183.25 142.820312 183.121094 142.820312 182.964844 C 142.820312 182.808594 142.875 182.679688 142.984375 182.570312 C 143.09375 182.460938 143.226562 182.40625 143.378906 182.40625 C 143.535156 182.40625 143.667969 182.460938 143.777344 182.570312 C 143.886719 182.679688 143.941406 182.808594 143.941406 182.964844 Z M 143.941406 182.964844 " fill-opacity="1" fill-rule="nonzero"/></g><g clip-path="url(#f6fcf71be1)"><path fill="#11bfff" d="M 167.347656 160.851562 L 161.394531 160.851562 L 159.78125 159.171875 L 151.652344 159.171875 L 145.394531 152.773438 L 145.394531 148.992188 L 143.460938 147.257812 L 134.269531 147.257812 L 134.269531 146.945312 L 143.578125 146.945312 L 145.710938 148.855469 L 145.710938 152.644531 L 151.785156 158.859375 L 159.917969 158.859375 L 161.527344 160.539062 L 167.347656 160.539062 Z M 167.347656 160.851562 " fill-opacity="1" fill-rule="nonzero"/></g><g clip-path="url(#f0bcbddfea)"><path fill="#11bfff" d="M 155.035156 170.066406 L 151.023438 166.167969 L 151.023438 161.074219 L 143.316406 153.4375 L 143.316406 149.863281 L 141.953125 148.640625 L 134.269531 148.640625 L 134.269531 148.503906 L 142.003906 148.503906 L 143.445312 149.804688 L 143.445312 153.378906 L 151.15625 161.019531 L 151.15625 166.113281 L 155.132812 169.96875 Z M 155.035156 170.066406 " fill-opacity="1" fill-rule="nonzero"/></g><g clip-path="url(#23e3d11351)"><path fill="#11bfff" d="M 163.984375 156.839844 L 152.394531 156.839844 L 147.726562 152.175781 L 147.726562 147.898438 L 145.242188 145.277344 L 134.269531 145.277344 L 134.269531 145.144531 L 145.300781 145.144531 L 147.863281 147.84375 L 147.863281 152.117188 L 152.449219 156.703125 L 163.984375 156.703125 Z M 163.984375 156.839844 " fill-opacity="1" fill-rule="nonzero"/></g><g clip-path="url(#202eed5983)"><path fill="#11bfff" d="M 160.296875 151.582031 L 152.675781 151.582031 L 149.550781 148.601562 L 149.550781 147.128906 L 146.277344 143.765625 L 146.371094 143.667969 L 149.683594 147.074219 L 149.683594 148.542969 L 152.730469 151.449219 L 160.242188 151.449219 L 162.132812 149.625 L 179.753906 149.554688 L 179.753906 149.691406 L 162.1875 149.761719 Z M 160.296875 151.582031 " fill-opacity="1" fill-rule="nonzero"/></g><g clip-path="url(#e78f084792)"><path fill="#11bfff" d="M 158.335938 148.640625 L 153.722656 148.640625 L 149.078125 143.761719 L 149.175781 143.667969 L 153.78125 148.503906 L 158.28125 148.503906 L 160.734375 146.078125 L 175.125 146.078125 L 175.125 146.210938 L 160.789062 146.210938 Z M 158.335938 148.640625 " fill-opacity="1" fill-rule="nonzero"/></g><g clip-path="url(#4ecac1105e)"><path fill="#11bfff" d="M 142.257812 174.574219 L 142.121094 174.574219 L 142.121094 170.042969 L 138.269531 165.839844 L 138.269531 156.746094 L 141.28125 153.871094 L 141.28125 151.019531 L 140.550781 150.320312 L 134.269531 150.320312 L 134.269531 150.1875 L 140.605469 150.1875 L 141.414062 150.960938 L 141.414062 153.925781 L 138.402344 156.800781 L 138.402344 165.785156 L 142.257812 169.992188 Z M 142.257812 174.574219 " fill-opacity="1" fill-rule="nonzero"/></g><path fill="#11bfff" d="M 143.726562 176.746094 L 143.59375 176.746094 L 143.59375 169.0625 L 139.808594 165.070312 L 139.808594 157.652344 L 142.144531 155.53125 L 142.234375 155.632812 L 139.945312 157.714844 L 139.945312 165.015625 L 143.726562 169.007812 Z M 143.726562 176.746094 " fill-opacity="1" fill-rule="nonzero"/><path fill="#11bfff" d="M 149.992188 181.699219 L 144.925781 176.773438 L 144.925781 168.363281 L 141.210938 164.722656 L 141.210938 158.804688 L 141.34375 158.804688 L 141.34375 164.664062 L 145.058594 168.308594 L 145.058594 176.71875 L 150.085938 181.605469 Z M 149.992188 181.699219 " fill-opacity="1" fill-rule="nonzero"/><path fill="#11bfff" d="M 140.179688 181.960938 L 135.796875 177.6875 L 135.796875 168.273438 L 136.902344 167.171875 L 136.902344 157.367188 L 137.035156 157.367188 L 137.035156 167.226562 L 135.929688 168.328125 L 135.929688 177.628906 L 140.273438 181.867188 Z M 140.179688 181.960938 " fill-opacity="1" fill-rule="nonzero"/><g clip-path="url(#2642a5909e)"><path fill="#11bfff" d="M 143.332031 183.011719 L 136.953125 176.527344 L 137.21875 169.640625 L 137.351562 169.644531 L 137.089844 176.476562 L 143.429688 182.917969 Z M 143.332031 183.011719 " fill-opacity="1" fill-rule="nonzero"/></g><path fill="#11bfff" d="M 140.789062 181.914062 C 140.789062 182.070312 140.734375 182.199219 140.625 182.308594 C 140.515625 182.417969 140.382812 182.472656 140.226562 182.472656 C 140.074219 182.472656 139.941406 182.417969 139.832031 182.308594 C 139.722656 182.199219 139.667969 182.070312 139.667969 181.914062 C 139.667969 181.757812 139.722656 181.628906 139.832031 181.519531 C 139.941406 181.410156 140.074219 181.355469 140.226562 181.355469 C 140.382812 181.355469 140.515625 181.410156 140.625 181.519531 C 140.734375 181.628906 140.789062 181.757812 140.789062 181.914062 Z M 140.789062 181.914062 " fill-opacity="1" fill-rule="nonzero"/><path fill="#11bfff" d="M 150.738281 181.652344 C 150.738281 181.804688 150.683594 181.9375 150.574219 182.046875 C 150.464844 182.15625 150.332031 182.210938 150.175781 182.210938 C 150.023438 182.210938 149.890625 182.15625 149.78125 182.046875 C 149.671875 181.9375 149.617188 181.804688 149.617188 181.652344 C 149.617188 181.496094 149.671875 181.363281 149.78125 181.253906 C 149.890625 181.144531 150.023438 181.089844 150.175781 181.089844 C 150.332031 181.089844 150.464844 181.144531 150.574219 181.253906 C 150.683594 181.363281 150.738281 181.496094 150.738281 181.652344 Z M 150.738281 181.652344 " fill-opacity="1" fill-rule="nonzero"/><path fill="#11bfff" d="M 153.15625 179.125 C 153.15625 179.28125 153.101562 179.414062 152.992188 179.523438 C 152.882812 179.632812 152.75 179.6875 152.597656 179.6875 C 152.441406 179.6875 152.308594 179.632812 152.199219 179.523438 C 152.089844 179.414062 152.035156 179.28125 152.035156 179.125 C 152.035156 178.972656 152.089844 178.839844 152.199219 178.730469 C 152.308594 178.621094 152.441406 178.566406 152.597656 178.566406 C 152.75 178.566406 152.882812 178.621094 152.992188 178.730469 C 153.101562 178.839844 153.15625 178.972656 153.15625 179.125 Z M 153.15625 179.125 " fill-opacity="1" fill-rule="nonzero"/><path fill="#11bfff" d="M 144.21875 176.746094 C 144.21875 176.898438 144.164062 177.03125 144.054688 177.140625 C 143.945312 177.25 143.816406 177.304688 143.660156 177.304688 C 143.503906 177.304688 143.375 177.25 143.261719 177.140625 C 143.152344 177.03125 143.097656 176.898438 143.097656 176.746094 C 143.097656 176.589844 143.152344 176.457031 143.261719 176.347656 C 143.375 176.238281 143.503906 176.183594 143.660156 176.183594 C 143.816406 176.183594 143.945312 176.238281 144.054688 176.347656 C 144.164062 176.457031 144.21875 176.589844 144.21875 176.746094 Z M 144.21875 176.746094 " fill-opacity="1" fill-rule="nonzero"/><path fill="#11bfff" d="M 142.75 174.574219 C 142.75 174.726562 142.695312 174.859375 142.585938 174.96875 C 142.476562 175.078125 142.34375 175.132812 142.1875 175.132812 C 142.035156 175.132812 141.902344 175.078125 141.792969 174.96875 C 141.683594 174.859375 141.628906 174.726562 141.628906 174.574219 C 141.628906 174.417969 141.683594 174.285156 141.792969 174.175781 C 141.902344 174.066406 142.035156 174.011719 142.1875 174.011719 C 142.34375 174.011719 142.476562 174.066406 142.585938 174.175781 C 142.695312 174.285156 142.75 174.417969 142.75 174.574219 Z M 142.75 174.574219 " fill-opacity="1" fill-rule="nonzero"/><path fill="#11bfff" d="M 141.839844 158.804688 C 141.839844 158.957031 141.785156 159.089844 141.675781 159.199219 C 141.566406 159.308594 141.433594 159.363281 141.277344 159.363281 C 141.125 159.363281 140.992188 159.308594 140.882812 159.199219 C 140.773438 159.089844 140.71875 158.957031 140.71875 158.804688 C 140.71875 158.648438 140.773438 158.515625 140.882812 158.40625 C 140.992188 158.296875 141.125 158.242188 141.277344 158.242188 C 141.433594 158.242188 141.566406 158.296875 141.675781 158.40625 C 141.785156 158.515625 141.839844 158.648438 141.839844 158.804688 Z M 141.839844 158.804688 " fill-opacity="1" fill-rule="nonzero"/><path fill="#11bfff" d="M 146.21875 159.785156 C 146.21875 159.941406 146.164062 160.074219 146.054688 160.183594 C 145.945312 160.292969 145.8125 160.347656 145.660156 160.347656 C 145.503906 160.347656 145.371094 160.292969 145.261719 160.183594 C 145.152344 160.074219 145.097656 159.941406 145.097656 159.785156 C 145.097656 159.632812 145.152344 159.5 145.261719 159.390625 C 145.371094 159.28125 145.503906 159.226562 145.660156 159.226562 C 145.8125 159.226562 145.945312 159.28125 146.054688 159.390625 C 146.164062 159.5 146.21875 159.632812 146.21875 159.785156 Z M 146.21875 159.785156 " fill-opacity="1" fill-rule="nonzero"/><path fill="#11bfff" d="M 142.75 155.582031 C 142.75 155.734375 142.695312 155.867188 142.585938 155.976562 C 142.476562 156.085938 142.34375 156.140625 142.1875 156.140625 C 142.035156 156.140625 141.902344 156.085938 141.792969 155.976562 C 141.683594 155.867188 141.628906 155.734375 141.628906 155.582031 C 141.628906 155.425781 141.683594 155.292969 141.792969 155.183594 C 141.902344 155.074219 142.035156 155.019531 142.1875 155.019531 C 142.34375 155.019531 142.476562 155.074219 142.585938 155.183594 C 142.695312 155.292969 142.75 155.425781 142.75 155.582031 Z M 142.75 155.582031 " fill-opacity="1" fill-rule="nonzero"/><path fill="#11bfff" d="M 155.644531 170.015625 C 155.644531 170.171875 155.589844 170.304688 155.480469 170.414062 C 155.371094 170.523438 155.238281 170.578125 155.082031 170.578125 C 154.929688 170.578125 154.796875 170.523438 154.6875 170.414062 C 154.578125 170.304688 154.523438 170.171875 154.523438 170.015625 C 154.523438 169.863281 154.578125 169.730469 154.6875 169.621094 C 154.796875 169.511719 154.929688 169.457031 155.082031 169.457031 C 155.238281 169.457031 155.371094 169.511719 155.480469 169.621094 C 155.589844 169.730469 155.644531 169.863281 155.644531 170.015625 Z M 155.644531 170.015625 " fill-opacity="1" fill-rule="nonzero"/><path fill="#11bfff" d="M 167.910156 160.699219 C 167.910156 160.851562 167.855469 160.984375 167.746094 161.09375 C 167.636719 161.203125 167.503906 161.257812 167.347656 161.257812 C 167.195312 161.257812 167.0625 161.203125 166.953125 161.09375 C 166.84375 160.984375 166.789062 160.851562 166.789062 160.699219 C 166.789062 160.542969 166.84375 160.410156 166.953125 160.300781 C 167.0625 160.191406 167.195312 160.136719 167.347656 160.136719 C 167.503906 160.136719 167.636719 160.191406 167.746094 160.300781 C 167.855469 160.410156 167.910156 160.542969 167.910156 160.699219 Z M 167.910156 160.699219 " fill-opacity="1" fill-rule="nonzero"/><path fill="#11bfff" d="M 164.542969 156.773438 C 164.542969 156.925781 164.488281 157.058594 164.378906 157.167969 C 164.269531 157.277344 164.136719 157.332031 163.984375 157.332031 C 163.828125 157.332031 163.695312 157.277344 163.585938 157.167969 C 163.476562 157.058594 163.421875 156.925781 163.421875 156.773438 C 163.421875 156.617188 163.476562 156.484375 163.585938 156.375 C 163.695312 156.265625 163.828125 156.210938 163.984375 156.210938 C 164.136719 156.210938 164.269531 156.265625 164.378906 156.375 C 164.488281 156.484375 164.542969 156.617188 164.542969 156.773438 Z M 164.542969 156.773438 " fill-opacity="1" fill-rule="nonzero"/><path fill="#11bfff" d="M 149.6875 150.988281 C 149.6875 151.144531 149.632812 151.277344 149.523438 151.386719 C 149.414062 151.496094 149.28125 151.550781 149.125 151.550781 C 148.972656 151.550781 148.839844 151.496094 148.730469 151.386719 C 148.621094 151.277344 148.566406 151.144531 148.566406 150.988281 C 148.566406 150.835938 148.621094 150.703125 148.730469 150.59375 C 148.839844 150.484375 148.972656 150.429688 149.125 150.429688 C 149.28125 150.429688 149.414062 150.484375 149.523438 150.59375 C 149.632812 150.703125 149.6875 150.835938 149.6875 150.988281 Z M 149.6875 150.988281 " fill-opacity="1" fill-rule="nonzero"/><g clip-path="url(#439fc8dfb9)"><path fill="#11bfff" d="M 180.3125 149.625 C 180.3125 149.777344 180.257812 149.910156 180.148438 150.019531 C 180.039062 150.128906 179.90625 150.183594 179.753906 150.183594 C 179.597656 150.183594 179.464844 150.128906 179.355469 150.019531 C 179.246094 149.910156 179.191406 149.777344 179.191406 149.625 C 179.191406 149.46875 179.246094 149.335938 179.355469 149.226562 C 179.464844 149.117188 179.597656 149.0625 179.753906 149.0625 C 179.90625 149.0625 180.039062 149.117188 180.148438 149.226562 C 180.257812 149.335938 180.3125 149.46875 180.3125 149.625 Z M 180.3125 149.625 " fill-opacity="1" fill-rule="nonzero"/></g><path fill="#11bfff" d="M 178.527344 155.582031 C 178.527344 155.734375 178.472656 155.867188 178.363281 155.976562 C 178.253906 156.085938 178.121094 156.140625 177.964844 156.140625 C 177.8125 156.140625 177.679688 156.085938 177.570312 155.976562 C 177.460938 155.867188 177.40625 155.734375 177.40625 155.582031 C 177.40625 155.425781 177.460938 155.292969 177.570312 155.183594 C 177.679688 155.074219 177.8125 155.019531 177.964844 155.019531 C 178.121094 155.019531 178.253906 155.074219 178.363281 155.183594 C 178.472656 155.292969 178.527344 155.425781 178.527344 155.582031 Z M 178.527344 155.582031 " fill-opacity="1" fill-rule="nonzero"/><path fill="#11bfff" d="M 175.6875 146.144531 C 175.6875 146.296875 175.632812 146.429688 175.523438 146.539062 C 175.414062 146.648438 175.28125 146.703125 175.125 146.703125 C 174.972656 146.703125 174.839844 146.648438 174.730469 146.539062 C 174.621094 146.429688 174.566406 146.296875 174.566406 146.144531 C 174.566406 145.988281 174.621094 145.855469 174.730469 145.746094 C 174.839844 145.636719 174.972656 145.582031 175.125 145.582031 C 175.28125 145.582031 175.414062 145.636719 175.523438 145.746094 C 175.632812 145.855469 175.6875 145.988281 175.6875 146.144531 Z M 175.6875 146.144531 " fill-opacity="1" fill-rule="nonzero"/><path fill="#11bfff" d="M 137.824219 170.015625 C 137.824219 170.171875 137.769531 170.304688 137.660156 170.414062 C 137.550781 170.523438 137.417969 170.578125 137.265625 170.578125 C 137.109375 170.578125 136.976562 170.523438 136.867188 170.414062 C 136.757812 170.304688 136.703125 170.171875 136.703125 170.015625 C 136.703125 169.863281 136.757812 169.730469 136.867188 169.621094 C 136.976562 169.511719 137.109375 169.457031 137.265625 169.457031 C 137.417969 169.457031 137.550781 169.511719 137.660156 169.621094 C 137.769531 169.730469 137.824219 169.863281 137.824219 170.015625 Z M 137.824219 170.015625 " fill-opacity="1" fill-rule="nonzero"/><path fill="#11bfff" d="M 137.582031 157.367188 C 137.582031 157.523438 137.527344 157.65625 137.417969 157.765625 C 137.308594 157.875 137.175781 157.929688 137.019531 157.929688 C 136.863281 157.929688 136.734375 157.875 136.625 157.765625 C 136.515625 157.65625 136.460938 157.523438 136.460938 157.367188 C 136.460938 157.210938 136.515625 157.082031 136.625 156.972656 C 136.734375 156.863281 136.863281 156.808594 137.019531 156.808594 C 137.175781 156.808594 137.308594 156.863281 137.417969 156.972656 C 137.527344 157.082031 137.582031 157.210938 137.582031 157.367188 Z M 137.582031 157.367188 " fill-opacity="1" fill-rule="nonzero"/><path fill="#11bfff" d="M 152.550781 179.175781 L 147.378906 174.003906 L 147.378906 170.265625 L 149.164062 168.691406 L 149.164062 163.386719 L 145.613281 159.835938 L 145.707031 159.738281 L 149.300781 163.332031 L 149.300781 168.75 L 147.511719 170.328125 L 147.511719 173.949219 L 152.644531 179.082031 Z M 152.550781 179.175781 " fill-opacity="1" fill-rule="nonzero"/><path fill="#11bfff" d="M 177.964844 155.648438 L 174.527344 155.648438 L 172.390625 151.582031 L 163.066406 151.582031 L 160.894531 153.96875 L 152.007812 153.96875 L 149.078125 151.039062 L 149.175781 150.941406 L 152.0625 153.832031 L 160.835938 153.832031 L 163.007812 151.449219 L 172.46875 151.449219 L 174.605469 155.515625 L 177.964844 155.515625 Z M 177.964844 155.648438 " fill-opacity="1" fill-rule="nonzero"/></svg>