<svg xmlns="http://www.w3.org/2000/svg" xmlns:xlink="http://www.w3.org/1999/xlink" width="50" zoomAndPan="magnify" viewBox="0 -50 375 374.999991" height="50" preserveAspectRatio="xMidYMid meet" version="1.0"><defs><clipPath id="3efeabd856"><path d="M 128.5625 99.824219 L 235.015625 99.824219 L 235.015625 187.566406 L 128.5625 187.566406 Z M 128.5625 99.824219 " clip-rule="nonzero"/></clipPath><clipPath id="527f5b7ad7"><path d="M 208.535156 100.851562 L 181.789062 127.113281 L 155.039062 100.851562 C 154.351562 100.152344 153.515625 99.8125 152.53125 99.824219 L 130.367188 99.824219 C 129.871094 99.824219 129.445312 100.003906 129.089844 100.355469 C 128.738281 100.707031 128.5625 101.132812 128.5625 101.632812 L 128.5625 134.394531 C 128.539062 135.417969 128.898438 136.277344 129.640625 136.980469 L 161.429688 168.207031 L 177.582031 152.351562 L 169.574219 155.101562 L 144.417969 130.375 L 144.417969 111.5 L 181.789062 148.226562 L 218.378906 112.257812 L 218.378906 131.15625 L 171.058594 177.644531 L 180.519531 186.972656 C 180.875 187.3125 181.296875 187.480469 181.789062 187.480469 C 182.277344 187.480469 182.703125 187.3125 183.054688 186.972656 L 233.9375 136.980469 C 234.667969 136.273438 235.027344 135.410156 235.015625 134.394531 L 235.015625 101.632812 C 235.015625 101.132812 234.839844 100.707031 234.484375 100.355469 C 234.132812 100.003906 233.707031 99.824219 233.207031 99.824219 L 211.042969 99.824219 C 210.0625 99.8125 209.226562 100.152344 208.535156 100.851562 " clip-rule="evenodd"/></clipPath><linearGradient x1="20.382089" gradientTransform="matrix(0.269638, 0, 0, 0.269638, 128.561936, 99.826168)" y1="344.904112" x2="374.725887" gradientUnits="userSpaceOnUse" y2="-19.518905" id="7c0ca34641"><stop stop-opacity="1" stop-color="rgb(23.899841%, 44.699097%, 92.89856%)" offset="0"/><stop stop-opacity="1" stop-color="rgb(23.899841%, 44.699097%, 92.89856%)" offset="0.25"/><stop stop-opacity="1" stop-color="rgb(23.899841%, 44.699097%, 92.89856%)" offset="0.28125"/><stop stop-opacity="1" stop-color="rgb(23.851013%, 44.78302%, 92.918396%)" offset="0.296875"/><stop stop-opacity="1" stop-color="rgb(23.698425%, 45.050049%, 92.980957%)" offset="0.304688"/><stop stop-opacity="1" stop-color="rgb(23.48938%, 45.417786%, 93.067932%)" offset="0.3125"/><stop stop-opacity="1" stop-color="rgb(23.280334%, 45.783997%, 93.153381%)" offset="0.320312"/><stop stop-opacity="1" stop-color="rgb(23.071289%, 46.151733%, 93.240356%)" offset="0.328125"/><stop stop-opacity="1" stop-color="rgb(22.862244%, 46.517944%, 93.327332%)" offset="0.335938"/><stop stop-opacity="1" stop-color="rgb(22.653198%, 46.885681%, 93.412781%)" offset="0.34375"/><stop stop-opacity="1" stop-color="rgb(22.444153%, 47.251892%, 93.499756%)" offset="0.351562"/><stop stop-opacity="1" stop-color="rgb(22.235107%, 47.619629%, 93.585205%)" offset="0.359375"/><stop stop-opacity="1" stop-color="rgb(22.026062%, 47.98584%, 93.67218%)" offset="0.367187"/><stop stop-opacity="1" stop-color="rgb(21.817017%, 48.353577%, 93.757629%)" offset="0.375"/><stop stop-opacity="1" stop-color="rgb(21.607971%, 48.719788%, 93.844604%)" offset="0.382812"/><stop stop-opacity="1" stop-color="rgb(21.398926%, 49.087524%, 93.930054%)" offset="0.390625"/><stop stop-opacity="1" stop-color="rgb(21.18988%, 49.453735%, 94.017029%)" offset="0.398438"/><stop stop-opacity="1" stop-color="rgb(20.980835%, 49.821472%, 94.102478%)" offset="0.40625"/><stop stop-opacity="1" stop-color="rgb(20.77179%, 50.187683%, 94.189453%)" offset="0.414062"/><stop stop-opacity="1" stop-color="rgb(20.562744%, 50.55542%, 94.274902%)" offset="0.421875"/><stop stop-opacity="1" stop-color="rgb(20.353699%, 50.921631%, 94.361877%)" offset="0.429688"/><stop stop-opacity="1" stop-color="rgb(20.144653%, 51.289368%, 94.448853%)" offset="0.4375"/><stop stop-opacity="1" stop-color="rgb(19.935608%, 51.655579%, 94.534302%)" offset="0.445312"/><stop stop-opacity="1" stop-color="rgb(19.726562%, 52.023315%, 94.621277%)" offset="0.453125"/><stop stop-opacity="1" stop-color="rgb(19.517517%, 52.389526%, 94.706726%)" offset="0.458535"/><stop stop-opacity="1" stop-color="rgb(19.413757%, 52.574158%, 94.750977%)" offset="0.460938"/><stop stop-opacity="1" stop-color="rgb(19.308472%, 52.757263%, 94.793701%)" offset="0.46875"/><stop stop-opacity="1" stop-color="rgb(19.099426%, 53.123474%, 94.87915%)" offset="0.476562"/><stop stop-opacity="1" stop-color="rgb(18.890381%, 53.491211%, 94.966125%)" offset="0.484375"/><stop stop-opacity="1" stop-color="rgb(18.681335%, 53.857422%, 95.051575%)" offset="0.492187"/><stop stop-opacity="1" stop-color="rgb(18.47229%, 54.225159%, 95.13855%)" offset="0.5"/><stop stop-opacity="1" stop-color="rgb(18.263245%, 54.59137%, 95.223999%)" offset="0.507812"/><stop stop-opacity="1" stop-color="rgb(18.054199%, 54.959106%, 95.310974%)" offset="0.515625"/><stop stop-opacity="1" stop-color="rgb(17.84668%, 55.325317%, 95.397949%)" offset="0.523437"/><stop stop-opacity="1" stop-color="rgb(17.637634%, 55.693054%, 95.483398%)" offset="0.53125"/><stop stop-opacity="1" stop-color="rgb(17.428589%, 56.059265%, 95.570374%)" offset="0.539062"/><stop stop-opacity="1" stop-color="rgb(17.219543%, 56.427002%, 95.655823%)" offset="0.541465"/><stop stop-opacity="1" stop-color="rgb(17.115784%, 56.610107%, 95.700073%)" offset="0.546875"/><stop stop-opacity="1" stop-color="rgb(17.010498%, 56.793213%, 95.742798%)" offset="0.554688"/><stop stop-opacity="1" stop-color="rgb(16.801453%, 57.16095%, 95.828247%)" offset="0.5625"/><stop stop-opacity="1" stop-color="rgb(16.592407%, 57.528687%, 95.915222%)" offset="0.570312"/><stop stop-opacity="1" stop-color="rgb(16.383362%, 57.894897%, 96.000671%)" offset="0.578125"/><stop stop-opacity="1" stop-color="rgb(16.174316%, 58.262634%, 96.087646%)" offset="0.585938"/><stop stop-opacity="1" stop-color="rgb(15.965271%, 58.628845%, 96.173096%)" offset="0.59375"/><stop stop-opacity="1" stop-color="rgb(15.756226%, 58.996582%, 96.260071%)" offset="0.601562"/><stop stop-opacity="1" stop-color="rgb(15.54718%, 59.362793%, 96.347046%)" offset="0.609375"/><stop stop-opacity="1" stop-color="rgb(15.338135%, 59.73053%, 96.432495%)" offset="0.617187"/><stop stop-opacity="1" stop-color="rgb(15.129089%, 60.096741%, 96.51947%)" offset="0.625"/><stop stop-opacity="1" stop-color="rgb(14.920044%, 60.464478%, 96.604919%)" offset="0.632812"/><stop stop-opacity="1" stop-color="rgb(14.710999%, 60.830688%, 96.691895%)" offset="0.640625"/><stop stop-opacity="1" stop-color="rgb(14.501953%, 61.198425%, 96.777344%)" offset="0.648437"/><stop stop-opacity="1" stop-color="rgb(14.292908%, 61.564636%, 96.864319%)" offset="0.65625"/><stop stop-opacity="1" stop-color="rgb(14.083862%, 61.932373%, 96.949768%)" offset="0.664062"/><stop stop-opacity="1" stop-color="rgb(13.874817%, 62.298584%, 97.036743%)" offset="0.671875"/><stop stop-opacity="1" stop-color="rgb(13.665771%, 62.666321%, 97.122192%)" offset="0.679688"/><stop stop-opacity="1" stop-color="rgb(13.456726%, 63.032532%, 97.209167%)" offset="0.6875"/><stop stop-opacity="1" stop-color="rgb(13.247681%, 63.400269%, 97.296143%)" offset="0.695312"/><stop stop-opacity="1" stop-color="rgb(13.038635%, 63.766479%, 97.381592%)" offset="0.703125"/><stop stop-opacity="1" stop-color="rgb(12.82959%, 64.134216%, 97.468567%)" offset="0.710938"/><stop stop-opacity="1" stop-color="rgb(12.620544%, 64.500427%, 97.554016%)" offset="0.71875"/><stop stop-opacity="1" stop-color="rgb(12.411499%, 64.868164%, 97.640991%)" offset="0.726562"/><stop stop-opacity="1" stop-color="rgb(12.202454%, 65.234375%, 97.72644%)" offset="0.734375"/><stop stop-opacity="1" stop-color="rgb(11.993408%, 65.602112%, 97.813416%)" offset="0.742187"/><stop stop-opacity="1" stop-color="rgb(11.784363%, 65.968323%, 97.898865%)" offset="0.75"/><stop stop-opacity="1" stop-color="rgb(11.575317%, 66.33606%, 97.98584%)" offset="0.757812"/><stop stop-opacity="1" stop-color="rgb(11.366272%, 66.702271%, 98.071289%)" offset="0.765625"/><stop stop-opacity="1" stop-color="rgb(11.157227%, 67.070007%, 98.158264%)" offset="0.773437"/><stop stop-opacity="1" stop-color="rgb(10.948181%, 67.436218%, 98.243713%)" offset="0.78125"/><stop stop-opacity="1" stop-color="rgb(10.739136%, 67.803955%, 98.330688%)" offset="0.789062"/><stop stop-opacity="1" stop-color="rgb(10.53009%, 68.170166%, 98.417664%)" offset="0.796875"/><stop stop-opacity="1" stop-color="rgb(10.321045%, 68.537903%, 98.503113%)" offset="0.804688"/><stop stop-opacity="1" stop-color="rgb(10.112%, 68.904114%, 98.590088%)" offset="0.8125"/><stop stop-opacity="1" stop-color="rgb(9.902954%, 69.271851%, 98.675537%)" offset="0.820312"/><stop stop-opacity="1" stop-color="rgb(9.693909%, 69.638062%, 98.762512%)" offset="0.828125"/><stop stop-opacity="1" stop-color="rgb(9.484863%, 70.005798%, 98.847961%)" offset="0.835938"/><stop stop-opacity="1" stop-color="rgb(9.275818%, 70.372009%, 98.934937%)" offset="0.84375"/><stop stop-opacity="1" stop-color="rgb(9.066772%, 70.739746%, 99.020386%)" offset="0.851562"/><stop stop-opacity="1" stop-color="rgb(8.857727%, 71.105957%, 99.107361%)" offset="0.859375"/><stop stop-opacity="1" stop-color="rgb(8.648682%, 71.473694%, 99.19281%)" offset="0.867187"/><stop stop-opacity="1" stop-color="rgb(8.441162%, 71.839905%, 99.279785%)" offset="0.875"/><stop stop-opacity="1" stop-color="rgb(8.232117%, 72.207642%, 99.36676%)" offset="0.882812"/><stop stop-opacity="1" stop-color="rgb(8.023071%, 72.573853%, 99.452209%)" offset="0.890625"/><stop stop-opacity="1" stop-color="rgb(7.814026%, 72.941589%, 99.539185%)" offset="0.898437"/><stop stop-opacity="1" stop-color="rgb(7.60498%, 73.3078%, 99.624634%)" offset="0.90625"/><stop stop-opacity="1" stop-color="rgb(7.395935%, 73.675537%, 99.711609%)" offset="0.914062"/><stop stop-opacity="1" stop-color="rgb(7.18689%, 74.041748%, 99.797058%)" offset="0.921875"/><stop stop-opacity="1" stop-color="rgb(6.977844%, 74.409485%, 99.884033%)" offset="0.929687"/><stop stop-opacity="1" stop-color="rgb(6.785583%, 74.745178%, 99.963379%)" offset="0.9375"/><stop stop-opacity="1" stop-color="rgb(6.698608%, 74.899292%, 100%)" offset="1"/></linearGradient><clipPath id="e14fd35c6a"><path d="M 137 138 L 139 138 L 139 139.566406 L 137 139.566406 Z M 137 138 " clip-rule="nonzero"/></clipPath><clipPath id="0e2397cc06"><path d="M 128.5625 103 L 162 103 L 162 118 L 128.5625 118 Z M 128.5625 103 " clip-rule="nonzero"/></clipPath><clipPath id="820990e04e"><path d="M 128.5625 104 L 150 104 L 150 127 L 128.5625 127 Z M 128.5625 104 " clip-rule="nonzero"/></clipPath><clipPath id="ab60f085d4"><path d="M 128.5625 101 L 159 101 L 159 113 L 128.5625 113 Z M 128.5625 101 " clip-rule="nonzero"/></clipPath><clipPath id="11999b7d9b"><path d="M 140 99.816406 L 174.3125 99.816406 L 174.3125 108 L 140 108 Z M 140 99.816406 " clip-rule="nonzero"/></clipPath><clipPath id="a6aa8b7c2c"><path d="M 143 99.816406 L 170 99.816406 L 170 105 L 143 105 Z M 143 99.816406 " clip-rule="nonzero"/></clipPath><clipPath id="a03c8a5a27"><path d="M 128.5625 106 L 137 106 L 137 131 L 128.5625 131 Z M 128.5625 106 " clip-rule="nonzero"/></clipPath><clipPath id="383516198e"><path d="M 131 125 L 138 125 L 138 139.566406 L 131 139.566406 Z M 131 125 " clip-rule="nonzero"/></clipPath><clipPath id="5e7cce7346"><path d="M 173 105 L 174.3125 105 L 174.3125 107 L 173 107 Z M 173 105 " clip-rule="nonzero"/></clipPath></defs><g clip-path="url(#3efeabd856)"><g clip-path="url(#527f5b7ad7)"><path fill="url(#7c0ca34641)" d="M 128.5625 99.824219 L 128.5625 187.480469 L 235.015625 187.480469 L 235.015625 99.824219 Z M 128.5625 99.824219 " fill-rule="nonzero"/></g></g><g clip-path="url(#e14fd35c6a)"><path fill="#11bfff" d="M 138.230469 139.121094 C 138.230469 139.277344 138.175781 139.410156 138.066406 139.519531 C 137.957031 139.628906 137.828125 139.683594 137.671875 139.683594 C 137.515625 139.683594 137.382812 139.628906 137.273438 139.519531 C 137.164062 139.410156 137.109375 139.277344 137.109375 139.121094 C 137.109375 138.96875 137.164062 138.835938 137.273438 138.726562 C 137.382812 138.617188 137.515625 138.5625 137.671875 138.5625 C 137.828125 138.5625 137.957031 138.617188 138.066406 138.726562 C 138.175781 138.835938 138.230469 138.96875 138.230469 139.121094 Z M 138.230469 139.121094 " fill-opacity="1" fill-rule="nonzero"/></g><g clip-path="url(#0e2397cc06)"><path fill="#11bfff" d="M 161.640625 117.011719 L 155.683594 117.011719 L 154.074219 115.328125 L 145.945312 115.328125 L 139.6875 108.929688 L 139.6875 105.152344 L 137.75 103.414062 L 128.5625 103.414062 L 128.5625 103.101562 L 137.871094 103.101562 L 140 105.011719 L 140 108.800781 L 146.078125 115.015625 L 154.210938 115.015625 L 155.820312 116.699219 L 161.640625 116.699219 Z M 161.640625 117.011719 " fill-opacity="1" fill-rule="nonzero"/></g><g clip-path="url(#820990e04e)"><path fill="#11bfff" d="M 149.328125 126.222656 L 145.316406 122.328125 L 145.316406 117.234375 L 137.605469 109.59375 L 137.605469 106.023438 L 136.246094 104.800781 L 128.5625 104.800781 L 128.5625 104.664062 L 136.296875 104.664062 L 137.738281 105.960938 L 137.738281 109.539062 L 145.449219 117.179688 L 145.449219 122.273438 L 149.421875 126.128906 Z M 149.328125 126.222656 " fill-opacity="1" fill-rule="nonzero"/></g><g clip-path="url(#ab60f085d4)"><path fill="#11bfff" d="M 158.273438 112.996094 L 146.6875 112.996094 L 142.019531 108.335938 L 142.019531 104.058594 L 139.535156 101.433594 L 128.5625 101.433594 L 128.5625 101.300781 L 139.59375 101.300781 L 142.15625 104.003906 L 142.15625 108.277344 L 146.742188 112.863281 L 158.273438 112.863281 Z M 158.273438 112.996094 " fill-opacity="1" fill-rule="nonzero"/></g><g clip-path="url(#11999b7d9b)"><path fill="#11bfff" d="M 154.589844 107.742188 L 146.964844 107.742188 L 143.839844 104.757812 L 143.839844 103.289062 L 140.570312 99.921875 L 140.664062 99.828125 L 143.976562 103.234375 L 143.976562 104.703125 L 147.019531 107.609375 L 154.535156 107.609375 L 156.425781 105.785156 L 174.042969 105.714844 L 174.042969 105.851562 L 156.480469 105.917969 Z M 154.589844 107.742188 " fill-opacity="1" fill-rule="nonzero"/></g><g clip-path="url(#a6aa8b7c2c)"><path fill="#11bfff" d="M 152.628906 104.800781 L 148.015625 104.800781 L 143.371094 99.921875 L 143.46875 99.828125 L 148.070312 104.664062 L 152.574219 104.664062 L 155.023438 102.238281 L 169.417969 102.238281 L 169.417969 102.371094 L 155.078125 102.371094 Z M 152.628906 104.800781 " fill-opacity="1" fill-rule="nonzero"/></g><g clip-path="url(#a03c8a5a27)"><path fill="#11bfff" d="M 136.546875 130.730469 L 136.414062 130.730469 L 136.414062 126.203125 L 132.558594 121.996094 L 132.558594 112.902344 L 135.574219 110.027344 L 135.574219 107.179688 L 134.839844 106.480469 L 128.5625 106.480469 L 128.5625 106.34375 L 134.898438 106.34375 L 135.707031 107.121094 L 135.707031 110.085938 L 132.691406 112.960938 L 132.691406 121.945312 L 136.546875 126.148438 Z M 136.546875 130.730469 " fill-opacity="1" fill-rule="nonzero"/></g><path fill="#11bfff" d="M 138.019531 132.902344 L 137.886719 132.902344 L 137.886719 125.222656 L 134.101562 121.226562 L 134.101562 113.8125 L 136.433594 111.6875 L 136.527344 111.789062 L 134.234375 113.871094 L 134.234375 121.175781 L 138.019531 125.167969 Z M 138.019531 132.902344 " fill-opacity="1" fill-rule="nonzero"/><path fill="#11bfff" d="M 144.285156 137.855469 L 139.21875 132.929688 L 139.21875 124.523438 L 135.503906 120.878906 L 135.503906 114.960938 L 135.636719 114.960938 L 135.636719 120.820312 L 139.351562 124.464844 L 139.351562 132.875 L 144.375 137.761719 Z M 144.285156 137.855469 " fill-opacity="1" fill-rule="nonzero"/><path fill="#11bfff" d="M 134.472656 138.121094 L 130.089844 133.84375 L 130.089844 124.429688 L 131.195312 123.328125 L 131.195312 113.527344 L 131.328125 113.527344 L 131.328125 123.382812 L 130.222656 124.488281 L 130.222656 133.785156 L 134.566406 138.023438 Z M 134.472656 138.121094 " fill-opacity="1" fill-rule="nonzero"/><g clip-path="url(#383516198e)"><path fill="#11bfff" d="M 137.625 139.171875 L 131.242188 132.683594 L 131.507812 125.796875 L 131.640625 125.800781 L 131.382812 132.632812 L 137.722656 139.074219 Z M 137.625 139.171875 " fill-opacity="1" fill-rule="nonzero"/></g><path fill="#11bfff" d="M 135.078125 138.070312 C 135.078125 138.226562 135.023438 138.359375 134.914062 138.46875 C 134.804688 138.578125 134.671875 138.632812 134.519531 138.632812 C 134.363281 138.632812 134.230469 138.578125 134.121094 138.46875 C 134.011719 138.359375 133.957031 138.226562 133.957031 138.070312 C 133.957031 137.917969 134.011719 137.785156 134.121094 137.675781 C 134.230469 137.566406 134.363281 137.511719 134.519531 137.511719 C 134.671875 137.511719 134.804688 137.566406 134.914062 137.675781 C 135.023438 137.785156 135.078125 137.917969 135.078125 138.070312 Z M 135.078125 138.070312 " fill-opacity="1" fill-rule="nonzero"/><path fill="#11bfff" d="M 145.03125 137.808594 C 145.03125 137.964844 144.976562 138.097656 144.867188 138.207031 C 144.757812 138.316406 144.625 138.371094 144.46875 138.371094 C 144.3125 138.371094 144.183594 138.316406 144.074219 138.207031 C 143.964844 138.097656 143.910156 137.964844 143.910156 137.808594 C 143.910156 137.65625 143.964844 137.523438 144.074219 137.414062 C 144.183594 137.304688 144.3125 137.25 144.46875 137.25 C 144.625 137.25 144.757812 137.304688 144.867188 137.414062 C 144.976562 137.523438 145.03125 137.65625 145.03125 137.808594 Z M 145.03125 137.808594 " fill-opacity="1" fill-rule="nonzero"/><path fill="#11bfff" d="M 147.449219 135.285156 C 147.449219 135.441406 147.394531 135.570312 147.285156 135.679688 C 147.175781 135.789062 147.042969 135.84375 146.886719 135.84375 C 146.734375 135.84375 146.601562 135.789062 146.492188 135.679688 C 146.382812 135.570312 146.328125 135.441406 146.328125 135.285156 C 146.328125 135.128906 146.382812 135 146.492188 134.886719 C 146.601562 134.777344 146.734375 134.722656 146.886719 134.722656 C 147.042969 134.722656 147.175781 134.777344 147.285156 134.886719 C 147.394531 135 147.449219 135.128906 147.449219 135.285156 Z M 147.449219 135.285156 " fill-opacity="1" fill-rule="nonzero"/><path fill="#11bfff" d="M 138.511719 132.902344 C 138.511719 133.058594 138.457031 133.191406 138.347656 133.300781 C 138.238281 133.410156 138.105469 133.464844 137.953125 133.464844 C 137.796875 133.464844 137.664062 133.410156 137.554688 133.300781 C 137.445312 133.191406 137.390625 133.058594 137.390625 132.902344 C 137.390625 132.75 137.445312 132.617188 137.554688 132.507812 C 137.664062 132.398438 137.796875 132.34375 137.953125 132.34375 C 138.105469 132.34375 138.238281 132.398438 138.347656 132.507812 C 138.457031 132.617188 138.511719 132.75 138.511719 132.902344 Z M 138.511719 132.902344 " fill-opacity="1" fill-rule="nonzero"/><path fill="#11bfff" d="M 137.039062 130.730469 C 137.039062 130.886719 136.984375 131.019531 136.875 131.128906 C 136.765625 131.238281 136.636719 131.292969 136.480469 131.292969 C 136.324219 131.292969 136.195312 131.238281 136.085938 131.128906 C 135.976562 131.019531 135.921875 130.886719 135.921875 130.730469 C 135.921875 130.578125 135.976562 130.445312 136.085938 130.335938 C 136.195312 130.226562 136.324219 130.171875 136.480469 130.171875 C 136.636719 130.171875 136.765625 130.226562 136.875 130.335938 C 136.984375 130.445312 137.039062 130.578125 137.039062 130.730469 Z M 137.039062 130.730469 " fill-opacity="1" fill-rule="nonzero"/><path fill="#11bfff" d="M 136.128906 114.960938 C 136.128906 115.117188 136.074219 115.25 135.964844 115.359375 C 135.855469 115.46875 135.722656 115.523438 135.570312 115.523438 C 135.414062 115.523438 135.28125 115.46875 135.171875 115.359375 C 135.0625 115.25 135.007812 115.117188 135.007812 114.960938 C 135.007812 114.808594 135.0625 114.675781 135.171875 114.566406 C 135.28125 114.457031 135.414062 114.402344 135.570312 114.402344 C 135.722656 114.402344 135.855469 114.457031 135.964844 114.566406 C 136.074219 114.675781 136.128906 114.808594 136.128906 114.960938 Z M 136.128906 114.960938 " fill-opacity="1" fill-rule="nonzero"/><path fill="#11bfff" d="M 140.511719 115.945312 C 140.511719 116.101562 140.457031 116.230469 140.347656 116.339844 C 140.238281 116.449219 140.105469 116.503906 139.949219 116.503906 C 139.796875 116.503906 139.664062 116.449219 139.554688 116.339844 C 139.445312 116.230469 139.390625 116.101562 139.390625 115.945312 C 139.390625 115.789062 139.445312 115.65625 139.554688 115.546875 C 139.664062 115.4375 139.796875 115.382812 139.949219 115.382812 C 140.105469 115.382812 140.238281 115.4375 140.347656 115.546875 C 140.457031 115.65625 140.511719 115.789062 140.511719 115.945312 Z M 140.511719 115.945312 " fill-opacity="1" fill-rule="nonzero"/><path fill="#11bfff" d="M 137.039062 111.738281 C 137.039062 111.894531 136.984375 112.027344 136.875 112.136719 C 136.765625 112.246094 136.636719 112.300781 136.480469 112.300781 C 136.324219 112.300781 136.195312 112.246094 136.085938 112.136719 C 135.976562 112.027344 135.921875 111.894531 135.921875 111.738281 C 135.921875 111.585938 135.976562 111.453125 136.085938 111.34375 C 136.195312 111.234375 136.324219 111.179688 136.480469 111.179688 C 136.636719 111.179688 136.765625 111.234375 136.875 111.34375 C 136.984375 111.453125 137.039062 111.585938 137.039062 111.738281 Z M 137.039062 111.738281 " fill-opacity="1" fill-rule="nonzero"/><path fill="#11bfff" d="M 149.9375 126.175781 C 149.9375 126.332031 149.882812 126.460938 149.773438 126.570312 C 149.664062 126.679688 149.53125 126.734375 149.375 126.734375 C 149.222656 126.734375 149.089844 126.679688 148.980469 126.570312 C 148.871094 126.460938 148.816406 126.332031 148.816406 126.175781 C 148.816406 126.019531 148.871094 125.886719 148.980469 125.777344 C 149.089844 125.667969 149.222656 125.613281 149.375 125.613281 C 149.53125 125.613281 149.664062 125.667969 149.773438 125.777344 C 149.882812 125.886719 149.9375 126.019531 149.9375 126.175781 Z M 149.9375 126.175781 " fill-opacity="1" fill-rule="nonzero"/><path fill="#11bfff" d="M 162.199219 116.855469 C 162.199219 117.011719 162.144531 117.140625 162.035156 117.253906 C 161.925781 117.363281 161.792969 117.417969 161.640625 117.417969 C 161.484375 117.417969 161.351562 117.363281 161.242188 117.253906 C 161.132812 117.140625 161.078125 117.011719 161.078125 116.855469 C 161.078125 116.699219 161.132812 116.570312 161.242188 116.460938 C 161.351562 116.351562 161.484375 116.296875 161.640625 116.296875 C 161.792969 116.296875 161.925781 116.351562 162.035156 116.460938 C 162.144531 116.570312 162.199219 116.699219 162.199219 116.855469 Z M 162.199219 116.855469 " fill-opacity="1" fill-rule="nonzero"/><path fill="#11bfff" d="M 158.835938 112.929688 C 158.835938 113.085938 158.78125 113.21875 158.671875 113.328125 C 158.5625 113.4375 158.429688 113.492188 158.273438 113.492188 C 158.121094 113.492188 157.988281 113.4375 157.878906 113.328125 C 157.769531 113.21875 157.714844 113.085938 157.714844 112.929688 C 157.714844 112.777344 157.769531 112.644531 157.878906 112.535156 C 157.988281 112.425781 158.121094 112.371094 158.273438 112.371094 C 158.429688 112.371094 158.5625 112.425781 158.671875 112.535156 C 158.78125 112.644531 158.835938 112.777344 158.835938 112.929688 Z M 158.835938 112.929688 " fill-opacity="1" fill-rule="nonzero"/><path fill="#11bfff" d="M 143.980469 107.148438 C 143.980469 107.304688 143.925781 107.433594 143.816406 107.542969 C 143.707031 107.652344 143.574219 107.707031 143.417969 107.707031 C 143.261719 107.707031 143.132812 107.652344 143.023438 107.542969 C 142.914062 107.433594 142.859375 107.304688 142.859375 107.148438 C 142.859375 106.992188 142.914062 106.863281 143.023438 106.75 C 143.132812 106.640625 143.261719 106.585938 143.417969 106.585938 C 143.574219 106.585938 143.707031 106.640625 143.816406 106.75 C 143.925781 106.863281 143.980469 106.992188 143.980469 107.148438 Z M 143.980469 107.148438 " fill-opacity="1" fill-rule="nonzero"/><g clip-path="url(#5e7cce7346)"><path fill="#11bfff" d="M 174.605469 105.78125 C 174.605469 105.9375 174.550781 106.070312 174.441406 106.179688 C 174.332031 106.289062 174.199219 106.34375 174.042969 106.34375 C 173.890625 106.34375 173.757812 106.289062 173.648438 106.179688 C 173.539062 106.070312 173.484375 105.9375 173.484375 105.78125 C 173.484375 105.628906 173.539062 105.496094 173.648438 105.386719 C 173.757812 105.277344 173.890625 105.222656 174.042969 105.222656 C 174.199219 105.222656 174.332031 105.277344 174.441406 105.386719 C 174.550781 105.496094 174.605469 105.628906 174.605469 105.78125 Z M 174.605469 105.78125 " fill-opacity="1" fill-rule="nonzero"/></g><path fill="#11bfff" d="M 172.820312 111.738281 C 172.820312 111.894531 172.765625 112.027344 172.65625 112.136719 C 172.546875 112.246094 172.414062 112.300781 172.257812 112.300781 C 172.101562 112.300781 171.972656 112.246094 171.863281 112.136719 C 171.753906 112.027344 171.699219 111.894531 171.699219 111.738281 C 171.699219 111.585938 171.753906 111.453125 171.863281 111.34375 C 171.972656 111.234375 172.101562 111.179688 172.257812 111.179688 C 172.414062 111.179688 172.546875 111.234375 172.65625 111.34375 C 172.765625 111.453125 172.820312 111.585938 172.820312 111.738281 Z M 172.820312 111.738281 " fill-opacity="1" fill-rule="nonzero"/><path fill="#11bfff" d="M 169.980469 102.300781 C 169.980469 102.457031 169.925781 102.589844 169.816406 102.699219 C 169.707031 102.808594 169.574219 102.863281 169.417969 102.863281 C 169.261719 102.863281 169.132812 102.808594 169.023438 102.699219 C 168.914062 102.589844 168.859375 102.457031 168.859375 102.300781 C 168.859375 102.148438 168.914062 102.015625 169.023438 101.90625 C 169.132812 101.796875 169.261719 101.742188 169.417969 101.742188 C 169.574219 101.742188 169.707031 101.796875 169.816406 101.90625 C 169.925781 102.015625 169.980469 102.148438 169.980469 102.300781 Z M 169.980469 102.300781 " fill-opacity="1" fill-rule="nonzero"/><path fill="#11bfff" d="M 132.117188 126.175781 C 132.117188 126.332031 132.0625 126.460938 131.953125 126.570312 C 131.84375 126.679688 131.710938 126.734375 131.558594 126.734375 C 131.402344 126.734375 131.269531 126.679688 131.160156 126.570312 C 131.050781 126.460938 130.996094 126.332031 130.996094 126.175781 C 130.996094 126.019531 131.050781 125.886719 131.160156 125.777344 C 131.269531 125.667969 131.402344 125.613281 131.558594 125.613281 C 131.710938 125.613281 131.84375 125.667969 131.953125 125.777344 C 132.0625 125.886719 132.117188 126.019531 132.117188 126.175781 Z M 132.117188 126.175781 " fill-opacity="1" fill-rule="nonzero"/><path fill="#11bfff" d="M 131.871094 113.527344 C 131.871094 113.679688 131.816406 113.8125 131.707031 113.921875 C 131.597656 114.03125 131.464844 114.085938 131.3125 114.085938 C 131.15625 114.085938 131.023438 114.03125 130.914062 113.921875 C 130.804688 113.8125 130.75 113.679688 130.75 113.527344 C 130.75 113.371094 130.804688 113.238281 130.914062 113.128906 C 131.023438 113.019531 131.15625 112.964844 131.3125 112.964844 C 131.464844 112.964844 131.597656 113.019531 131.707031 113.128906 C 131.816406 113.238281 131.871094 113.371094 131.871094 113.527344 Z M 131.871094 113.527344 " fill-opacity="1" fill-rule="nonzero"/><path fill="#11bfff" d="M 146.839844 135.332031 L 141.667969 130.164062 L 141.667969 126.425781 L 143.457031 124.847656 L 143.457031 119.546875 L 139.902344 115.992188 L 140 115.898438 L 143.589844 119.492188 L 143.589844 124.910156 L 141.804688 126.484375 L 141.804688 130.109375 L 146.9375 135.238281 Z M 146.839844 135.332031 " fill-opacity="1" fill-rule="nonzero"/><path fill="#11bfff" d="M 172.257812 111.808594 L 168.816406 111.808594 L 166.679688 107.742188 L 157.359375 107.742188 L 155.1875 110.125 L 146.300781 110.125 L 143.371094 107.195312 L 143.464844 107.101562 L 146.355469 109.992188 L 155.128906 109.992188 L 157.300781 107.609375 L 166.761719 107.609375 L 168.898438 111.671875 L 172.257812 111.671875 Z M 172.257812 111.808594 " fill-opacity="1" fill-rule="nonzero"/></svg>