<svg xmlns="http://www.w3.org/2000/svg" xmlns:xlink="http://www.w3.org/1999/xlink" width="500" zoomAndPan="magnify" viewBox="0 0 375 374.999991" height="500" preserveAspectRatio="xMidYMid meet" version="1.0"><defs><g/><clipPath id="666f216377"><path d="M 134.886719 174.472656 L 154.140625 174.472656 L 154.140625 190.222656 L 134.886719 190.222656 Z M 134.886719 174.472656 " clip-rule="nonzero"/></clipPath><clipPath id="f08d110095"><path d="M 149.351562 174.65625 L 144.515625 179.40625 L 139.675781 174.65625 C 139.550781 174.53125 139.402344 174.46875 139.222656 174.472656 L 135.214844 174.472656 C 134.996094 174.472656 134.886719 174.582031 134.886719 174.796875 L 134.886719 180.722656 C 134.882812 180.910156 134.949219 181.066406 135.082031 181.191406 L 140.832031 186.839844 L 143.753906 183.972656 L 142.304688 184.46875 L 137.753906 179.996094 L 137.753906 176.582031 L 144.515625 183.226562 L 151.132812 176.71875 L 151.132812 180.136719 L 142.574219 188.546875 L 144.285156 190.234375 C 144.4375 190.378906 144.589844 190.378906 144.742188 190.234375 L 153.945312 181.191406 C 154.078125 181.0625 154.144531 180.90625 154.140625 180.722656 L 154.140625 174.796875 C 154.140625 174.582031 154.03125 174.472656 153.816406 174.472656 L 149.804688 174.472656 C 149.628906 174.46875 149.476562 174.53125 149.351562 174.65625 " clip-rule="evenodd"/></clipPath><linearGradient x1="21.451902" gradientTransform="matrix(0.0487688, 0, 0, 0.0487688, 134.887971, 174.471566)" y1="343.803868" x2="374.725817" gradientUnits="userSpaceOnUse" y2="-19.518834" id="c2205c388f"><stop stop-opacity="1" stop-color="rgb(23.899841%, 44.699097%, 92.89856%)" offset="0"/><stop stop-opacity="1" stop-color="rgb(23.899841%, 44.699097%, 92.89856%)" offset="0.25"/><stop stop-opacity="1" stop-color="rgb(23.899841%, 44.699097%, 92.89856%)" offset="0.28125"/><stop stop-opacity="1" stop-color="rgb(23.823547%, 44.833374%, 92.930603%)" offset="0.296875"/><stop stop-opacity="1" stop-color="rgb(23.641968%, 45.149231%, 93.005371%)" offset="0.304688"/><stop stop-opacity="1" stop-color="rgb(23.434448%, 45.515442%, 93.09082%)" offset="0.3125"/><stop stop-opacity="1" stop-color="rgb(23.225403%, 45.881653%, 93.17627%)" offset="0.320312"/><stop stop-opacity="1" stop-color="rgb(23.016357%, 46.247864%, 93.263245%)" offset="0.328125"/><stop stop-opacity="1" stop-color="rgb(22.808838%, 46.614075%, 93.348694%)" offset="0.335938"/><stop stop-opacity="1" stop-color="rgb(22.599792%, 46.97876%, 93.435669%)" offset="0.34375"/><stop stop-opacity="1" stop-color="rgb(22.392273%, 47.344971%, 93.521118%)" offset="0.351563"/><stop stop-opacity="1" stop-color="rgb(22.183228%, 47.711182%, 93.606567%)" offset="0.359375"/><stop stop-opacity="1" stop-color="rgb(21.975708%, 48.077393%, 93.693542%)" offset="0.367188"/><stop stop-opacity="1" stop-color="rgb(21.766663%, 48.442078%, 93.778992%)" offset="0.375"/><stop stop-opacity="1" stop-color="rgb(21.557617%, 48.808289%, 93.864441%)" offset="0.382812"/><stop stop-opacity="1" stop-color="rgb(21.350098%, 49.1745%, 93.951416%)" offset="0.390625"/><stop stop-opacity="1" stop-color="rgb(21.141052%, 49.54071%, 94.036865%)" offset="0.398438"/><stop stop-opacity="1" stop-color="rgb(20.933533%, 49.906921%, 94.12384%)" offset="0.40625"/><stop stop-opacity="1" stop-color="rgb(20.724487%, 50.271606%, 94.20929%)" offset="0.414063"/><stop stop-opacity="1" stop-color="rgb(20.516968%, 50.637817%, 94.294739%)" offset="0.421875"/><stop stop-opacity="1" stop-color="rgb(20.307922%, 51.004028%, 94.381714%)" offset="0.429688"/><stop stop-opacity="1" stop-color="rgb(20.098877%, 51.370239%, 94.467163%)" offset="0.4375"/><stop stop-opacity="1" stop-color="rgb(19.891357%, 51.734924%, 94.552612%)" offset="0.445313"/><stop stop-opacity="1" stop-color="rgb(19.682312%, 52.101135%, 94.639587%)" offset="0.453125"/><stop stop-opacity="1" stop-color="rgb(19.474792%, 52.467346%, 94.725037%)" offset="0.456895"/><stop stop-opacity="1" stop-color="rgb(19.371033%, 52.650452%, 94.769287%)" offset="0.460938"/><stop stop-opacity="1" stop-color="rgb(19.265747%, 52.833557%, 94.812012%)" offset="0.46875"/><stop stop-opacity="1" stop-color="rgb(19.058228%, 53.199768%, 94.897461%)" offset="0.476562"/><stop stop-opacity="1" stop-color="rgb(18.849182%, 53.564453%, 94.98291%)" offset="0.484375"/><stop stop-opacity="1" stop-color="rgb(18.641663%, 53.930664%, 95.069885%)" offset="0.492188"/><stop stop-opacity="1" stop-color="rgb(18.432617%, 54.296875%, 95.155334%)" offset="0.5"/><stop stop-opacity="1" stop-color="rgb(18.223572%, 54.663086%, 95.240784%)" offset="0.507812"/><stop stop-opacity="1" stop-color="rgb(18.016052%, 55.027771%, 95.327759%)" offset="0.515625"/><stop stop-opacity="1" stop-color="rgb(17.807007%, 55.393982%, 95.413208%)" offset="0.523438"/><stop stop-opacity="1" stop-color="rgb(17.599487%, 55.760193%, 95.500183%)" offset="0.53125"/><stop stop-opacity="1" stop-color="rgb(17.390442%, 56.126404%, 95.585632%)" offset="0.539062"/><stop stop-opacity="1" stop-color="rgb(17.182922%, 56.492615%, 95.671082%)" offset="0.543105"/><stop stop-opacity="1" stop-color="rgb(17.079163%, 56.67572%, 95.715332%)" offset="0.546875"/><stop stop-opacity="1" stop-color="rgb(16.973877%, 56.8573%, 95.758057%)" offset="0.554688"/><stop stop-opacity="1" stop-color="rgb(16.764832%, 57.223511%, 95.843506%)" offset="0.5625"/><stop stop-opacity="1" stop-color="rgb(16.557312%, 57.589722%, 95.928955%)" offset="0.570313"/><stop stop-opacity="1" stop-color="rgb(16.348267%, 57.955933%, 96.01593%)" offset="0.578125"/><stop stop-opacity="1" stop-color="rgb(16.140747%, 58.322144%, 96.101379%)" offset="0.585938"/><stop stop-opacity="1" stop-color="rgb(15.931702%, 58.686829%, 96.186829%)" offset="0.59375"/><stop stop-opacity="1" stop-color="rgb(15.724182%, 59.05304%, 96.273804%)" offset="0.601562"/><stop stop-opacity="1" stop-color="rgb(15.515137%, 59.41925%, 96.359253%)" offset="0.609375"/><stop stop-opacity="1" stop-color="rgb(15.307617%, 59.785461%, 96.446228%)" offset="0.617188"/><stop stop-opacity="1" stop-color="rgb(15.098572%, 60.150146%, 96.531677%)" offset="0.625"/><stop stop-opacity="1" stop-color="rgb(14.889526%, 60.516357%, 96.617126%)" offset="0.632812"/><stop stop-opacity="1" stop-color="rgb(14.682007%, 60.882568%, 96.704102%)" offset="0.640625"/><stop stop-opacity="1" stop-color="rgb(14.472961%, 61.248779%, 96.789551%)" offset="0.648438"/><stop stop-opacity="1" stop-color="rgb(14.265442%, 61.61499%, 96.875%)" offset="0.65625"/><stop stop-opacity="1" stop-color="rgb(14.056396%, 61.979675%, 96.961975%)" offset="0.664062"/><stop stop-opacity="1" stop-color="rgb(13.848877%, 62.345886%, 97.047424%)" offset="0.671875"/><stop stop-opacity="1" stop-color="rgb(13.639832%, 62.712097%, 97.134399%)" offset="0.679688"/><stop stop-opacity="1" stop-color="rgb(13.430786%, 63.078308%, 97.219849%)" offset="0.6875"/><stop stop-opacity="1" stop-color="rgb(13.223267%, 63.442993%, 97.305298%)" offset="0.695312"/><stop stop-opacity="1" stop-color="rgb(13.014221%, 63.809204%, 97.392273%)" offset="0.703125"/><stop stop-opacity="1" stop-color="rgb(12.806702%, 64.175415%, 97.477722%)" offset="0.710938"/><stop stop-opacity="1" stop-color="rgb(12.597656%, 64.541626%, 97.563171%)" offset="0.71875"/><stop stop-opacity="1" stop-color="rgb(12.390137%, 64.907837%, 97.650146%)" offset="0.726562"/><stop stop-opacity="1" stop-color="rgb(12.181091%, 65.272522%, 97.735596%)" offset="0.734375"/><stop stop-opacity="1" stop-color="rgb(11.972046%, 65.638733%, 97.822571%)" offset="0.742188"/><stop stop-opacity="1" stop-color="rgb(11.764526%, 66.004944%, 97.90802%)" offset="0.75"/><stop stop-opacity="1" stop-color="rgb(11.555481%, 66.371155%, 97.993469%)" offset="0.757812"/><stop stop-opacity="1" stop-color="rgb(11.347961%, 66.73584%, 98.080444%)" offset="0.765625"/><stop stop-opacity="1" stop-color="rgb(11.138916%, 67.102051%, 98.165894%)" offset="0.773438"/><stop stop-opacity="1" stop-color="rgb(10.931396%, 67.468262%, 98.251343%)" offset="0.78125"/><stop stop-opacity="1" stop-color="rgb(10.722351%, 67.834473%, 98.338318%)" offset="0.789062"/><stop stop-opacity="1" stop-color="rgb(10.514832%, 68.200684%, 98.423767%)" offset="0.796875"/><stop stop-opacity="1" stop-color="rgb(10.305786%, 68.565369%, 98.510742%)" offset="0.804688"/><stop stop-opacity="1" stop-color="rgb(10.096741%, 68.93158%, 98.596191%)" offset="0.8125"/><stop stop-opacity="1" stop-color="rgb(9.889221%, 69.297791%, 98.681641%)" offset="0.820312"/><stop stop-opacity="1" stop-color="rgb(9.680176%, 69.664001%, 98.768616%)" offset="0.828125"/><stop stop-opacity="1" stop-color="rgb(9.472656%, 70.030212%, 98.854065%)" offset="0.835938"/><stop stop-opacity="1" stop-color="rgb(9.263611%, 70.394897%, 98.939514%)" offset="0.84375"/><stop stop-opacity="1" stop-color="rgb(9.056091%, 70.761108%, 99.026489%)" offset="0.851562"/><stop stop-opacity="1" stop-color="rgb(8.847046%, 71.127319%, 99.111938%)" offset="0.859375"/><stop stop-opacity="1" stop-color="rgb(8.638%, 71.49353%, 99.198914%)" offset="0.867188"/><stop stop-opacity="1" stop-color="rgb(8.430481%, 71.858215%, 99.284363%)" offset="0.875"/><stop stop-opacity="1" stop-color="rgb(8.221436%, 72.224426%, 99.369812%)" offset="0.882812"/><stop stop-opacity="1" stop-color="rgb(8.013916%, 72.590637%, 99.456787%)" offset="0.890625"/><stop stop-opacity="1" stop-color="rgb(7.804871%, 72.956848%, 99.542236%)" offset="0.898438"/><stop stop-opacity="1" stop-color="rgb(7.597351%, 73.323059%, 99.627686%)" offset="0.90625"/><stop stop-opacity="1" stop-color="rgb(7.388306%, 73.687744%, 99.714661%)" offset="0.914062"/><stop stop-opacity="1" stop-color="rgb(7.180786%, 74.053955%, 99.80011%)" offset="0.921875"/><stop stop-opacity="1" stop-color="rgb(6.971741%, 74.420166%, 99.887085%)" offset="0.929687"/><stop stop-opacity="1" stop-color="rgb(6.782532%, 74.751282%, 99.964905%)" offset="0.9375"/><stop stop-opacity="1" stop-color="rgb(6.698608%, 74.899292%, 100%)" offset="1"/></linearGradient></defs><g fill="#3d72ed" fill-opacity="1"><g transform="translate(155.537587, 189.902508)"><g><path d="M 11.140625 -15.15625 C 11.285156 -15.382812 11.492188 -15.539062 11.765625 -15.625 C 12.035156 -15.71875 12.375 -15.765625 12.78125 -15.765625 C 13.1875 -15.765625 13.507812 -15.726562 13.75 -15.65625 C 14 -15.582031 14.1875 -15.492188 14.3125 -15.390625 C 14.445312 -15.296875 14.539062 -15.144531 14.59375 -14.9375 C 14.6875 -14.695312 14.734375 -14.328125 14.734375 -13.828125 L 14.734375 -7.34375 C 14.734375 -5.457031 14.144531 -3.738281 12.96875 -2.1875 C 12.394531 -1.457031 11.65625 -0.867188 10.75 -0.421875 C 9.851562 0.0234375 8.859375 0.25 7.765625 0.25 C 6.671875 0.25 5.675781 0.0234375 4.78125 -0.421875 C 3.882812 -0.878906 3.15625 -1.484375 2.59375 -2.234375 C 1.4375 -3.753906 0.859375 -5.472656 0.859375 -7.390625 L 0.859375 -13.84375 C 0.859375 -14.1875 0.867188 -14.441406 0.890625 -14.609375 C 0.910156 -14.773438 0.976562 -14.960938 1.09375 -15.171875 C 1.207031 -15.390625 1.398438 -15.539062 1.671875 -15.625 C 1.941406 -15.71875 2.304688 -15.765625 2.765625 -15.765625 C 3.222656 -15.765625 3.585938 -15.71875 3.859375 -15.625 C 4.128906 -15.539062 4.316406 -15.390625 4.421875 -15.171875 C 4.597656 -14.847656 4.6875 -14.398438 4.6875 -13.828125 L 4.6875 -7.390625 C 4.6875 -6.515625 4.898438 -5.679688 5.328125 -4.890625 C 5.535156 -4.492188 5.851562 -4.171875 6.28125 -3.921875 C 6.71875 -3.679688 7.226562 -3.5625 7.8125 -3.5625 C 8.851562 -3.5625 9.628906 -3.945312 10.140625 -4.71875 C 10.660156 -5.488281 10.921875 -6.382812 10.921875 -7.40625 L 10.921875 -13.96875 C 10.921875 -14.53125 10.992188 -14.925781 11.140625 -15.15625 Z M 11.140625 -15.15625 "/></g></g></g><g fill="#3d72ed" fill-opacity="1"><g transform="translate(171.115341, 189.902508)"><g><path d="M 12.90625 -2.65625 C 13.113281 -2.144531 13.21875 -1.773438 13.21875 -1.546875 C 13.21875 -1.003906 12.773438 -0.546875 11.890625 -0.171875 C 11.429688 0.0234375 11.0625 0.125 10.78125 0.125 C 10.507812 0.125 10.28125 0.0546875 10.09375 -0.078125 C 9.914062 -0.210938 9.785156 -0.351562 9.703125 -0.5 C 9.554688 -0.769531 9 -2.0625 8.03125 -4.375 L 7.359375 -4.34375 L 4.65625 -4.34375 L 4.65625 -1.90625 C 4.65625 -1.582031 4.644531 -1.335938 4.625 -1.171875 C 4.601562 -1.003906 4.535156 -0.8125 4.421875 -0.59375 C 4.222656 -0.207031 3.664062 -0.015625 2.75 -0.015625 C 1.75 -0.015625 1.160156 -0.28125 0.984375 -0.8125 C 0.898438 -1.0625 0.859375 -1.4375 0.859375 -1.9375 L 0.859375 -13.84375 C 0.859375 -14.175781 0.867188 -14.421875 0.890625 -14.578125 C 0.910156 -14.742188 0.976562 -14.9375 1.09375 -15.15625 C 1.289062 -15.539062 1.847656 -15.734375 2.765625 -15.734375 L 7.40625 -15.734375 C 8.664062 -15.734375 9.890625 -15.273438 11.078125 -14.359375 C 11.648438 -13.921875 12.117188 -13.320312 12.484375 -12.5625 C 12.859375 -11.800781 13.046875 -10.957031 13.046875 -10.03125 C 13.046875 -8.40625 12.507812 -7.070312 11.4375 -6.03125 C 11.757812 -5.269531 12.25 -4.144531 12.90625 -2.65625 Z M 4.65625 -8.140625 L 7.40625 -8.140625 C 7.820312 -8.140625 8.238281 -8.296875 8.65625 -8.609375 C 9.070312 -8.921875 9.28125 -9.390625 9.28125 -10.015625 C 9.28125 -10.648438 9.070312 -11.128906 8.65625 -11.453125 C 8.238281 -11.773438 7.804688 -11.9375 7.359375 -11.9375 L 4.65625 -11.9375 Z M 4.65625 -8.140625 "/></g></g></g><g fill="#3d72ed" fill-opacity="1"><g transform="translate(184.654685, 189.902508)"><g><path d="M 12.46875 -12.5625 C 12.84375 -11.800781 13.03125 -10.953125 13.03125 -10.015625 C 13.03125 -9.085938 12.84375 -8.25 12.46875 -7.5 C 12.101562 -6.75 11.625 -6.148438 11.03125 -5.703125 C 9.84375 -4.796875 8.613281 -4.34375 7.34375 -4.34375 L 4.65625 -4.34375 L 4.65625 -1.90625 C 4.65625 -1.582031 4.644531 -1.335938 4.625 -1.171875 C 4.601562 -1.003906 4.535156 -0.8125 4.421875 -0.59375 C 4.222656 -0.207031 3.664062 -0.015625 2.75 -0.015625 C 1.75 -0.015625 1.160156 -0.28125 0.984375 -0.8125 C 0.898438 -1.0625 0.859375 -1.4375 0.859375 -1.9375 L 0.859375 -13.84375 C 0.859375 -14.175781 0.867188 -14.421875 0.890625 -14.578125 C 0.910156 -14.742188 0.976562 -14.9375 1.09375 -15.15625 C 1.289062 -15.539062 1.847656 -15.734375 2.765625 -15.734375 L 7.359375 -15.734375 C 8.617188 -15.734375 9.84375 -15.273438 11.03125 -14.359375 C 11.625 -13.921875 12.101562 -13.320312 12.46875 -12.5625 Z M 7.359375 -8.140625 C 7.785156 -8.140625 8.207031 -8.296875 8.625 -8.609375 C 9.039062 -8.921875 9.25 -9.390625 9.25 -10.015625 C 9.25 -10.648438 9.039062 -11.128906 8.625 -11.453125 C 8.207031 -11.773438 7.78125 -11.9375 7.34375 -11.9375 L 4.65625 -11.9375 L 4.65625 -8.140625 Z M 7.359375 -8.140625 "/></g></g></g><g fill="#3d72ed" fill-opacity="1"><g transform="translate(198.215486, 189.902508)"><g><path d="M 10.578125 -15.15625 C 10.691406 -15.375 10.882812 -15.523438 11.15625 -15.609375 C 11.4375 -15.691406 11.78125 -15.734375 12.1875 -15.734375 C 12.601562 -15.734375 12.929688 -15.695312 13.171875 -15.625 C 13.421875 -15.550781 13.609375 -15.460938 13.734375 -15.359375 C 13.867188 -15.265625 13.972656 -15.125 14.046875 -14.9375 C 14.109375 -14.695312 14.140625 -14.328125 14.140625 -13.828125 L 14.140625 -1.90625 C 14.140625 -1.582031 14.128906 -1.335938 14.109375 -1.171875 C 14.085938 -1.003906 14.019531 -0.8125 13.90625 -0.59375 C 13.707031 -0.207031 13.148438 -0.015625 12.234375 -0.015625 C 11.234375 -0.015625 10.648438 -0.28125 10.484375 -0.8125 C 10.390625 -1.0625 10.34375 -1.4375 10.34375 -1.9375 L 10.34375 -6.296875 L 4.65625 -6.296875 L 4.65625 -1.90625 C 4.65625 -1.582031 4.644531 -1.335938 4.625 -1.171875 C 4.601562 -1.003906 4.535156 -0.8125 4.421875 -0.59375 C 4.222656 -0.207031 3.664062 -0.015625 2.75 -0.015625 C 1.75 -0.015625 1.160156 -0.28125 0.984375 -0.8125 C 0.898438 -1.0625 0.859375 -1.4375 0.859375 -1.9375 L 0.859375 -13.84375 C 0.859375 -14.175781 0.867188 -14.421875 0.890625 -14.578125 C 0.910156 -14.742188 0.976562 -14.9375 1.09375 -15.15625 C 1.289062 -15.539062 1.847656 -15.734375 2.765625 -15.734375 C 3.765625 -15.734375 4.359375 -15.46875 4.546875 -14.9375 C 4.617188 -14.695312 4.65625 -14.328125 4.65625 -13.828125 L 4.65625 -9.453125 L 10.34375 -9.453125 L 10.34375 -13.84375 C 10.34375 -14.175781 10.351562 -14.421875 10.375 -14.578125 C 10.394531 -14.742188 10.460938 -14.9375 10.578125 -15.15625 Z M 10.578125 -15.15625 "/></g></g></g><g fill="#3d72ed" fill-opacity="1"><g transform="translate(213.213895, 189.902508)"><g><path d="M 13.359375 -15.4375 C 14.054688 -14.945312 14.40625 -14.472656 14.40625 -14.015625 C 14.40625 -13.742188 14.238281 -13.363281 13.90625 -12.875 L 9.28125 -5.953125 L 9.28125 -1.84375 C 9.28125 -1.519531 9.265625 -1.273438 9.234375 -1.109375 C 9.210938 -0.941406 9.144531 -0.75 9.03125 -0.53125 C 8.914062 -0.320312 8.722656 -0.171875 8.453125 -0.078125 C 8.179688 0.00390625 7.816406 0.046875 7.359375 0.046875 C 6.898438 0.046875 6.535156 0.00390625 6.265625 -0.078125 C 5.992188 -0.171875 5.800781 -0.328125 5.6875 -0.546875 C 5.570312 -0.765625 5.503906 -0.957031 5.484375 -1.125 C 5.460938 -1.289062 5.453125 -1.546875 5.453125 -1.890625 L 5.453125 -5.953125 L 0.8125 -12.875 C 0.488281 -13.363281 0.328125 -13.742188 0.328125 -14.015625 C 0.328125 -14.472656 0.640625 -14.910156 1.265625 -15.328125 C 1.898438 -15.753906 2.351562 -15.96875 2.625 -15.96875 C 2.894531 -15.96875 3.109375 -15.910156 3.265625 -15.796875 C 3.503906 -15.640625 3.757812 -15.347656 4.03125 -14.921875 L 7.359375 -9.59375 L 10.6875 -14.921875 C 10.957031 -15.347656 11.191406 -15.628906 11.390625 -15.765625 C 11.597656 -15.898438 11.832031 -15.96875 12.09375 -15.96875 C 12.363281 -15.96875 12.785156 -15.789062 13.359375 -15.4375 Z M 13.359375 -15.4375 "/></g></g></g><g fill="#3d72ed" fill-opacity="1"><g transform="translate(157.31373, 203.472533)"><g/></g></g><g fill="#3d72ed" fill-opacity="1"><g transform="translate(162.21541, 203.472533)"><g><path d="M 0.578125 0 L 0.578125 -5.9375 L 2.75 -5.9375 C 3.226562 -5.9375 3.617188 -5.851562 3.921875 -5.6875 C 4.234375 -5.53125 4.46875 -5.3125 4.625 -5.03125 C 4.78125 -4.757812 4.859375 -4.457031 4.859375 -4.125 C 4.859375 -3.769531 4.757812 -3.441406 4.5625 -3.140625 C 4.375 -2.835938 4.082031 -2.617188 3.6875 -2.484375 L 4.90625 0 L 3.671875 0 L 2.5625 -2.34375 L 1.65625 -2.34375 L 1.65625 0 Z M 1.65625 -3.140625 L 2.6875 -3.140625 C 3.050781 -3.140625 3.316406 -3.226562 3.484375 -3.40625 C 3.648438 -3.582031 3.734375 -3.8125 3.734375 -4.09375 C 3.734375 -4.375 3.648438 -4.597656 3.484375 -4.765625 C 3.316406 -4.941406 3.050781 -5.03125 2.6875 -5.03125 L 1.65625 -5.03125 Z M 1.65625 -3.140625 "/></g></g></g><g fill="#3d72ed" fill-opacity="1"><g transform="translate(170.380326, 203.472533)"><g><path d="M 0.578125 0 L 0.578125 -5.9375 L 4.453125 -5.9375 L 4.453125 -5.0625 L 1.65625 -5.0625 L 1.65625 -3.4375 L 4.203125 -3.4375 L 4.203125 -2.59375 L 1.65625 -2.59375 L 1.65625 -0.875 L 4.453125 -0.875 L 4.453125 0 Z M 0.578125 0 "/></g></g></g><g fill="#3d72ed" fill-opacity="1"><g transform="translate(178.1637, 203.472533)"><g><path d="M 0.578125 0 L 0.578125 -5.9375 L 2.78125 -5.9375 C 3.25 -5.9375 3.640625 -5.859375 3.953125 -5.703125 C 4.265625 -5.546875 4.492188 -5.328125 4.640625 -5.046875 C 4.796875 -4.765625 4.875 -4.453125 4.875 -4.109375 C 4.875 -3.785156 4.800781 -3.484375 4.65625 -3.203125 C 4.507812 -2.929688 4.28125 -2.710938 3.96875 -2.546875 C 3.65625 -2.378906 3.257812 -2.296875 2.78125 -2.296875 L 1.65625 -2.296875 L 1.65625 0 Z M 1.65625 -3.1875 L 2.703125 -3.1875 C 3.085938 -3.1875 3.363281 -3.269531 3.53125 -3.4375 C 3.695312 -3.601562 3.78125 -3.828125 3.78125 -4.109375 C 3.78125 -4.410156 3.695312 -4.644531 3.53125 -4.8125 C 3.363281 -4.976562 3.085938 -5.0625 2.703125 -5.0625 L 1.65625 -5.0625 Z M 1.65625 -3.1875 "/></g></g></g><g fill="#3d72ed" fill-opacity="1"><g transform="translate(186.192956, 203.472533)"><g><path d="M 3.359375 0.109375 C 2.765625 0.109375 2.242188 -0.0195312 1.796875 -0.28125 C 1.359375 -0.539062 1.007812 -0.898438 0.75 -1.359375 C 0.5 -1.828125 0.375 -2.363281 0.375 -2.96875 C 0.375 -3.570312 0.5 -4.101562 0.75 -4.5625 C 1.007812 -5.03125 1.359375 -5.394531 1.796875 -5.65625 C 2.242188 -5.914062 2.765625 -6.046875 3.359375 -6.046875 C 3.941406 -6.046875 4.457031 -5.914062 4.90625 -5.65625 C 5.351562 -5.394531 5.703125 -5.03125 5.953125 -4.5625 C 6.203125 -4.101562 6.328125 -3.570312 6.328125 -2.96875 C 6.328125 -2.363281 6.203125 -1.828125 5.953125 -1.359375 C 5.703125 -0.898438 5.351562 -0.539062 4.90625 -0.28125 C 4.457031 -0.0195312 3.941406 0.109375 3.359375 0.109375 Z M 3.359375 -0.875 C 3.921875 -0.875 4.367188 -1.0625 4.703125 -1.4375 C 5.046875 -1.8125 5.21875 -2.320312 5.21875 -2.96875 C 5.21875 -3.613281 5.046875 -4.125 4.703125 -4.5 C 4.367188 -4.875 3.921875 -5.0625 3.359375 -5.0625 C 2.796875 -5.0625 2.34375 -4.875 2 -4.5 C 1.664062 -4.125 1.5 -3.613281 1.5 -2.96875 C 1.5 -2.320312 1.664062 -1.8125 2 -1.4375 C 2.34375 -1.0625 2.796875 -0.875 3.359375 -0.875 Z M 3.359375 -0.875 "/></g></g></g><g fill="#3d72ed" fill-opacity="1"><g transform="translate(195.78228, 203.472533)"><g><path d="M 2.609375 0.109375 C 2.171875 0.109375 1.785156 0.0351562 1.453125 -0.109375 C 1.117188 -0.265625 0.851562 -0.484375 0.65625 -0.765625 C 0.46875 -1.046875 0.367188 -1.390625 0.359375 -1.796875 L 1.515625 -1.796875 C 1.523438 -1.515625 1.625 -1.28125 1.8125 -1.09375 C 2 -0.90625 2.257812 -0.8125 2.59375 -0.8125 C 2.882812 -0.8125 3.113281 -0.878906 3.28125 -1.015625 C 3.445312 -1.148438 3.53125 -1.332031 3.53125 -1.5625 C 3.53125 -1.8125 3.457031 -2.003906 3.3125 -2.140625 C 3.164062 -2.273438 2.96875 -2.382812 2.71875 -2.46875 C 2.46875 -2.550781 2.203125 -2.640625 1.921875 -2.734375 C 1.460938 -2.898438 1.113281 -3.101562 0.875 -3.34375 C 0.632812 -3.59375 0.515625 -3.925781 0.515625 -4.34375 C 0.503906 -4.695312 0.582031 -5 0.75 -5.25 C 0.925781 -5.5 1.164062 -5.691406 1.46875 -5.828125 C 1.769531 -5.972656 2.113281 -6.046875 2.5 -6.046875 C 2.894531 -6.046875 3.242188 -5.972656 3.546875 -5.828125 C 3.847656 -5.679688 4.082031 -5.484375 4.25 -5.234375 C 4.425781 -4.984375 4.523438 -4.679688 4.546875 -4.328125 L 3.375 -4.328125 C 3.375 -4.535156 3.296875 -4.71875 3.140625 -4.875 C 2.984375 -5.039062 2.765625 -5.125 2.484375 -5.125 C 2.242188 -5.132812 2.039062 -5.078125 1.875 -4.953125 C 1.71875 -4.828125 1.640625 -4.648438 1.640625 -4.421875 C 1.640625 -4.222656 1.703125 -4.066406 1.828125 -3.953125 C 1.953125 -3.835938 2.125 -3.738281 2.34375 -3.65625 C 2.5625 -3.570312 2.804688 -3.488281 3.078125 -3.40625 C 3.367188 -3.300781 3.632812 -3.179688 3.875 -3.046875 C 4.125 -2.910156 4.320312 -2.726562 4.46875 -2.5 C 4.613281 -2.28125 4.6875 -1.992188 4.6875 -1.640625 C 4.6875 -1.328125 4.609375 -1.035156 4.453125 -0.765625 C 4.296875 -0.503906 4.0625 -0.289062 3.75 -0.125 C 3.4375 0.03125 3.054688 0.109375 2.609375 0.109375 Z M 2.609375 0.109375 "/></g></g></g><g clip-path="url(#666f216377)"><g clip-path="url(#f08d110095)"><path fill="url(#c2205c388f)" d="M 134.886719 174.472656 L 134.886719 190.222656 L 154.140625 190.222656 L 154.140625 174.472656 Z M 134.886719 174.472656 " fill-rule="nonzero"/></g></g></svg>