<?xml version="1.0" encoding="UTF-8"?>
<svg id="Layer_2" data-name="Layer 2" xmlns="http://www.w3.org/2000/svg" xmlns:xlink="http://www.w3.org/1999/xlink" viewBox="0 0 1176.11 361.09">
  <defs>
    <style>
      .cls-1 {
        fill: url(#linear-gradient);
        stroke-width: 0px;
      }

      .cls-2 {
        fill: #fff;
        font-family: Onest-Bold, Onest;
        font-size: 180.61px;
        font-weight: 700;
      }
    </style>
    <linearGradient id="linear-gradient" x1="0" y1="168.99" x2="456.27" y2="168.99" gradientUnits="userSpaceOnUse">
      <stop offset="0" stop-color="#293e99"/>
      <stop offset="1" stop-color="#42bbec"/>
    </linearGradient>
  </defs>
  <g id="Layer_1-2" data-name="Layer 1">
    <g>
      <text class="cls-2" transform="translate(503.87 154.24)"><tspan x="0" y="0">Murphy</tspan><tspan x="0" y="152.3">Repos</tspan></text>
      <path class="cls-1" d="m128.15,99.77c-28.24,41.09-56,82.51-84.14,123.66-10.44,15.28-27.8,16.91-38.71,4.23-7.13-8.29-7.09-20.44.24-31.25,27.23-40.17,54.67-80.19,81.54-120.6,3.36-5.05,5.15-11.99,5.36-18.13.58-17.14,13.84-31.21,32.48-32.96,16.99-1.59,32.09,10.58,35.19,28.35,2.79,16.03-5.58,30.92-20.05,37.3-4.51,1.99-9.15,5.39-11.91,9.4Zm114.01,3.95c2.76-4.01,7.4-7.41,11.91-9.4,14.46-6.38,22.84-21.27,20.05-37.3-3.1-17.77-18.2-29.94-35.19-28.35-18.64,1.74-31.9,15.82-32.48,32.96-.21,6.14-2,13.08-5.36,18.13-6.15,9.25-12.34,18.47-18.54,27.68-.65.8-1.28,1.63-1.89,2.52-28.14,41.16-55.9,82.58-84.14,123.66-2.76,4.01-7.4,7.41-11.91,9.4-14.46,6.38-22.84,21.27-20.05,37.3,3.1,17.77,18.2,29.94,35.19,28.35,18.64-1.74,31.9-15.82,32.48-32.96.21-6.14,2-13.08,5.36-18.13,6.15-9.25,12.34-18.47,18.54-27.68.65-.8,1.28-1.63,1.89-2.52,28.14-41.16,55.9-82.58,84.14-123.66Zm214.02,82.92c-1.32-18.68-15.1-32.19-32.34-33.09-6.05-.36-12.95-2.26-17.98-5.77-20.71-14.5-43.15-30.83-63.7-45.48-.41-.29-.76-.51-1.09-.72-1.43-1.11-2.92-2.03-4.42-2.71-10.14-4.75-22.08-1.07-30.22,10.77-3.84,5.77-7.82,11.39-11.81,17.16-5.75,8.59-11.5,17.18-17.4,25.61-.46.14-55.23,81.11-82.53,121.23-7.34,10.81-7.31,22.93-.17,31.2,10.77,12.8,28.25,11.13,38.62-4.12,9.74-14.36,19.47-28.57,29.21-42.93.46-.14.77-.28,1.08-.57,23.01-34.5,46.32-68.85,69.63-103.19,16.12,11.32,32.09,22.78,48.05,34.24,3.84,2.86,7.16,7.52,9.13,12.13,6.01,14.6,20.71,23.29,36.85,20.82,17.82-2.72,30.3-17.59,29.08-34.6Zm-100.35,54.68c-17.63-.9-33.06,12.86-34.57,30.83-1.43,17.06,13.15,33.29,30.88,34.36,17.67,1.06,33.42-12.98,34.39-30.67.98-17.68-13.21-33.63-30.7-34.52Z"/>
    </g>
  </g>
</svg>